<svg xmlns="http://www.w3.org/2000/svg" xmlns:xlink="http://www.w3.org/1999/xlink" width="683.785" height="392.232" class="st2" color-interpolation-filters="sRGB" viewBox="0 0 512.838 294.174" xml:space="preserve"><style type="text/css">.st1{fill:none;stroke:none;stroke-linecap:round;stroke-linejoin:round;stroke-width:.72}.st2{fill:none;fill-rule:evenodd;font-size:12;overflow:visible;stroke-linecap:square;stroke-miterlimit:3}</style><g><title>Page-1</title><g id="shape68-1" transform="translate(0.72,-0.72)"><title>Sheet.68</title><rect width="511.398" height="292.734" x="0" y="1.44" class="st1"/><switch><svg width="511.398" height="292.734" x="0" y="1.44" preserveAspectRatio="none" viewBox="0 0 510.9 292.96"><clipPath id="mfid1"><rect id="mfid2" width="510.9" height="292.96"/></clipPath><g clip-path="url(#mfid1)"><defs><path id="mfid3" d="M1.98,225.22 L500.88,225.22 L508.44,217.67 L9.5391,217.67 L1.98,225.22 Z"/></defs><g><g text-rendering="geometricPrecision"><g fill="#71bfd2"><use fill-rule="evenodd" stroke="none" xlink:href="#mfid3"/></g><g fill="#71bfd2" stroke="#000" stroke-linecap="round" stroke-linejoin="round" stroke-width=".96"><use fill="none" xlink:href="#mfid3"/><defs><path id="mfid4" d="M508.44,283.43 L500.88,290.99 L500.88,225.22 L508.44,217.67 L508.44,283.43 Z"/></defs><use fill-rule="evenodd" stroke="none" xlink:href="#mfid4"/><use fill="none" xlink:href="#mfid4"/></g><g fill="#d1ebf1" stroke="#000" stroke-linecap="round" stroke-linejoin="round" stroke-width=".96"><rect width="498.9" height="65.764" x="1.98" y="225.22" stroke="none"/><defs><path id="mfid5" d="M1.98,290.99 L500.88,290.99 L500.88,225.22 L1.98,225.22 L1.98,290.99 Z"/></defs><use fill="none" xlink:href="#mfid5"/></g><g><g fill="#000" stroke="#000" stroke-linecap="round" stroke-linejoin="round" stroke-width=".96"><g font-family="ARIAL" font-size=".111" font-weight="bold"><text x="2.379 2.459 2.527 2.558 2.62 2.688 2.756" y=".309 .309 .309 .309 .309 .309 .309" stroke="none" transform="matrix(96, 0, 0, 96, 1.98, 225.22)" xml:space="preserve">Unicode</text></g><g font-family="ARIAL" font-size=".111" transform="matrix(96, 0, 0, 96, 1.98, 225.22)"><text x="1.984 2.064 2.126 2.188 2.225 2.287 2.342 2.373 2.435 2.472 2.503 2.54 2.601 2.663 2.7 2.762 2.818 2.879 2.941 2.972 3.034 3.065 3.089 3.151" y=".443 .443 .443 .443 .443 .443 .443 .443 .443 .443 .443 .443 .443 .443 .443 .443 .443 .443 .443 .443 .443 .443 .443 .443" stroke="none" xml:space="preserve">Character representation</text><defs><path id="mfid6" d="M387.49,155.81 L1.98,155.81 L13.319,144.47 L398.83,144.47 L387.49,155.81 Z"/></defs></g></g></g><g fill="#71bfd2" stroke="#000" stroke-linecap="round" stroke-linejoin="round" stroke-width=".96"><use fill-rule="evenodd" stroke="none" xlink:href="#mfid6"/><use fill="none" xlink:href="#mfid6"/><defs><path id="mfid7" d="M398.83,144.47 L387.49,155.81 L387.49,221.57 L398.83,210.23 L398.83,144.47 Z"/></defs><use fill-rule="evenodd" stroke="none" xlink:href="#mfid7"/><use fill="none" xlink:href="#mfid7"/></g><g fill="#d1ebf1" stroke="#000" stroke-linecap="round" stroke-linejoin="round" stroke-width=".96"><rect width="385.51" height="65.764" x="1.98" y="155.81" stroke="none"/><defs><path id="mfid8" d="M387.49,155.81 L1.98,155.81 L1.98,221.57 L387.49,221.57 L387.49,155.81 Z"/></defs><use fill="none" xlink:href="#mfid8"/></g><g><g fill="#000" stroke="#000" stroke-linecap="round" stroke-linejoin="round" stroke-width=".96"><g font-family="ARIAL" font-size=".111" font-weight="bold"><text x="1.891 1.965 2.057" y=".309 .309 .309" stroke="none" transform="matrix(96, 0, 0, 96, 1.98, 155.81)" xml:space="preserve">XML</text></g><g font-family="ARIAL" font-size=".111" transform="matrix(96, 0, 0, 96, 1.98, 155.81)"><text x=".884 .958 .983 1.045 1.137 1.199 1.261 1.292" y=".443 .443 .443 .443 .443 .443 .443 .443" stroke="none" xml:space="preserve">Elements</text><text x="1.347 1.378" y=".443 .443" stroke="none" xml:space="preserve">,</text><text x="1.409 1.471 1.502 1.532 1.569 1.594 1.656 1.718 1.749 1.81" y=".443 .443 .443 .443 .443 .443 .443 .443 .443 .443" stroke="none" xml:space="preserve">attributes</text><text x="1.866 1.897" y=".443 .443" stroke="none" xml:space="preserve">,</text><text x="1.928 1.99 2.051 2.082 2.107 2.138 2.162 2.224" y=".443 .443 .443 .443 .443 .443 .443 .443" stroke="none" xml:space="preserve">entities</text><text x="2.28 2.311" y=".443 .443" stroke="none" xml:space="preserve">,</text><text x="2.341 2.422 2.49 2.57" y=".443 .443 .443 .443" stroke="none" xml:space="preserve">DTDs</text><text x="2.625 2.656" y=".443 .443" stroke="none" xml:space="preserve">,</text><text x="2.687 2.743 2.798 2.86 2.922 3.014 3.076" y=".443 .443 .443 .443 .443 .443 .443" stroke="none" xml:space="preserve">schemas</text><defs><path id="mfid9" d="M440.88,155.81 L391.27,155.81 L402.61,144.47 L452.22,144.47 L440.88,155.81 Z"/></defs></g></g></g><g fill="#71bfd2" stroke="#000" stroke-linecap="round" stroke-linejoin="round" stroke-width=".96"><use fill-rule="evenodd" stroke="none" xlink:href="#mfid9"/><use fill="none" xlink:href="#mfid9"/><defs><path id="mfid10" d="M452.22,144.47 L440.88,155.81 L440.88,221.57 L452.22,210.23 L452.22,144.47 Z"/></defs><use fill-rule="evenodd" stroke="none" xlink:href="#mfid10"/><use fill="none" xlink:href="#mfid10"/></g><g fill="#d1ebf1" stroke="#000" stroke-linecap="round" stroke-linejoin="round" stroke-width=".96"><rect width="49.606" height="65.764" x="391.27" y="155.81" stroke="none"/><defs><path id="mfid11" d="M440.88,155.81 L391.27,155.81 L391.27,221.57 L440.88,221.57 L440.88,155.81 Z"/></defs><use fill="none" xlink:href="#mfid11"/><defs><path id="mfid12" d="M497.57,155.81 L447.96,155.81 L459.3,144.47 L508.91,144.47 L497.57,155.81 Z"/></defs></g><g fill="#a6a6a6" stroke="#000" stroke-linecap="round" stroke-linejoin="round" stroke-width=".96"><use fill-rule="evenodd" stroke="none" xlink:href="#mfid12"/><use fill="none" xlink:href="#mfid12"/><defs><path id="mfid13" d="M508.91,144.47 L497.57,155.81 L497.57,221.57 L508.91,210.23 L508.91,144.47 Z"/></defs><use fill-rule="evenodd" stroke="none" xlink:href="#mfid13"/><use fill="none" xlink:href="#mfid13"/></g><g fill="#d9d9d9" stroke="#000" stroke-linecap="round" stroke-linejoin="round" stroke-width=".96"><rect width="49.606" height="65.764" x="447.96" y="155.81" stroke="none"/><defs><path id="mfid14" d="M497.57,155.81 L447.96,155.81 L447.96,221.57 L497.57,221.57 L497.57,155.81 Z"/></defs><use fill="none" xlink:href="#mfid14"/><defs><path id="mfid15" d="M247.65,86.389 L1.98,86.389 L13.319,75.051 L258.99,75.051 L247.65,86.389 Z"/></defs></g><g fill="#b0c5e3" stroke="#000" stroke-linecap="round" stroke-linejoin="round" stroke-width=".96"><use fill-rule="evenodd" stroke="none" xlink:href="#mfid15"/><use fill="none" xlink:href="#mfid15"/><defs><path id="mfid16" d="M258.99,75.051 L247.65,86.389 L247.65,152.15 L258.99,140.81 L258.99,75.051 Z"/></defs><use fill-rule="evenodd" stroke="none" xlink:href="#mfid16"/><use fill="none" xlink:href="#mfid16"/></g><g fill="#e8eef7" stroke="#000" stroke-linecap="round" stroke-linejoin="round" stroke-width=".96"><rect width="245.67" height="65.764" x="1.98" y="86.389" stroke="none"/><defs><path id="mfid17" d="M247.65,86.389 L1.98,86.389 L1.98,152.15 L247.65,152.15 L247.65,86.389 Z"/></defs><use fill="none" xlink:href="#mfid17"/></g><g><g fill="#000" stroke="#000" stroke-linecap="round" stroke-linejoin="round" stroke-width=".96"><g font-family="ARIAL" font-size=".111" font-weight="bold"><text x=".807 .887 .918 .986 1.066 1.097 1.178 1.221 1.283 1.351 1.381 1.418 1.48 1.542 1.579 1.647 1.69" y=".309 .309 .309 .309 .309 .309 .309 .309 .309 .309 .309 .309 .309 .309 .309 .309 .309" stroke="none" transform="matrix(96, 0, 0, 96, 1.98, 86.389)" xml:space="preserve">DITA Architecture</text></g><g font-family="ARIAL" font-size=".111" transform="matrix(96, 0, 0, 96, 1.98, 86.389)"><text x=".174 .242 .304 .365 .39 .446" y=".443 .443 .443 .443 .443 .443" stroke="none" xml:space="preserve">Topics</text><text x=".501 .532" y=".443 .443" stroke="none" xml:space="preserve">,</text><text x=".563 .656 .717 .779" y=".443 .443 .443 .443" stroke="none" xml:space="preserve">Maps</text><text x=".835 .866" y=".443 .443" stroke="none" xml:space="preserve">,</text><text x=".896 .977 1.038 1.1 1.131 1.193 1.255 1.286 1.317 1.397 1.458 1.52 1.576" y=".443 .443 .443 .443 .443 .443 .443 .443 .443 .443 .443 .443 .443" stroke="none" xml:space="preserve">Content Reuse</text><text x="1.638 1.669" y=".443 .443" stroke="none" xml:space="preserve">,</text><text x="1.699 1.774 1.835 1.897 1.953 1.977 2.039 2.064 2.088 2.144 2.206 2.237 2.261 2.323" y=".443 .443 .443 .443 .443 .443 .443 .443 .443 .443 .443 .443 .443 .443" stroke="none" xml:space="preserve">Specialization</text><defs><path id="mfid18" d="M281.9,86.389 L251.19,86.389 L262.53,75.051 L293.24,75.051 L281.9,86.389 Z"/></defs></g></g></g><g fill="#71bfd2" stroke="#000" stroke-linecap="round" stroke-linejoin="round" stroke-width=".96"><use fill-rule="evenodd" stroke="none" xlink:href="#mfid18"/><use fill="none" xlink:href="#mfid18"/><defs><path id="mfid19" d="M293.24,75.051 L281.9,86.389 L281.9,152.15 L293.24,140.81 L293.24,75.051 Z"/></defs><use fill-rule="evenodd" stroke="none" xlink:href="#mfid19"/><use fill="none" xlink:href="#mfid19"/></g><g fill="#d1ebf1" stroke="#000" stroke-linecap="round" stroke-linejoin="round" stroke-width=".96"><rect width="30.709" height="65.764" x="251.19" y="86.389" stroke="none"/><defs><path id="mfid20" d="M281.9,86.389 L251.19,86.389 L251.19,152.15 L281.9,152.15 L281.9,86.389 Z"/></defs><use fill="none" xlink:href="#mfid20"/><defs><path id="mfid21" d="M316.15,86.389 L285.44,86.389 L296.78,75.051 L327.49,75.051 L316.15,86.389 Z"/></defs></g><g fill="#71bfd2" stroke="#000" stroke-linecap="round" stroke-linejoin="round" stroke-width=".96"><use fill-rule="evenodd" stroke="none" xlink:href="#mfid21"/><use fill="none" xlink:href="#mfid21"/><defs><path id="mfid22" d="M327.49,75.051 L316.15,86.389 L316.15,152.15 L327.49,140.81 L327.49,75.051 Z"/></defs></g><g fill="#d1ebf1" stroke="#000" stroke-linecap="round" stroke-linejoin="round" stroke-width=".96"><use fill-rule="evenodd" stroke="none" xlink:href="#mfid22"/><use fill="none" xlink:href="#mfid22"/><rect width="30.709" height="65.764" x="285.44" y="86.389" stroke="none"/><defs><path id="mfid23" d="M316.15,86.389 L285.44,86.389 L285.44,152.15 L316.15,152.15 L316.15,86.389 Z"/></defs><use fill="none" xlink:href="#mfid23"/><defs><path id="mfid24" d="M349.7,86.389 L318.99,86.389 L330.33,75.051 L361.04,75.051 L349.7,86.389 Z"/></defs></g><g fill="#71bfd2" stroke="#000" stroke-linecap="round" stroke-linejoin="round" stroke-width=".96"><use fill-rule="evenodd" stroke="none" xlink:href="#mfid24"/><use fill="none" xlink:href="#mfid24"/><defs><path id="mfid25" d="M361.04,75.051 L349.7,86.389 L349.7,152.15 L361.04,140.81 L361.04,75.051 Z"/></defs><use fill-rule="evenodd" stroke="none" xlink:href="#mfid25"/><use fill="none" xlink:href="#mfid25"/></g><g fill="#d1ebf1" stroke="#000" stroke-linecap="round" stroke-linejoin="round" stroke-width=".96"><rect width="30.709" height="65.764" x="318.99" y="86.389" stroke="none"/><defs><path id="mfid26" d="M349.7,86.389 L318.99,86.389 L318.99,152.15 L349.7,152.15 L349.7,86.389 Z"/></defs><use fill="none" xlink:href="#mfid26"/><defs><path id="mfid27" d="M384.18,86.389 L353.48,86.389 L364.81,75.051 L395.52,75.051 L384.18,86.389 Z"/></defs></g><g fill="#a6a6a6" stroke="#000" stroke-linecap="round" stroke-linejoin="round" stroke-width=".96"><use fill-rule="evenodd" stroke="none" xlink:href="#mfid27"/><use fill="none" xlink:href="#mfid27"/><defs><path id="mfid28" d="M395.52,75.051 L384.18,86.389 L384.18,152.15 L395.52,140.81 L395.52,75.051 Z"/></defs><use fill-rule="evenodd" stroke="none" xlink:href="#mfid28"/><use fill="none" xlink:href="#mfid28"/></g><g fill="#d9d9d9" stroke="#000" stroke-linecap="round" stroke-linejoin="round" stroke-width=".96"><rect width="30.709" height="65.764" x="353.48" y="86.389" stroke="none"/><defs><path id="mfid29" d="M384.18,86.389 L353.48,86.389 L353.48,152.15 L384.18,152.15 L384.18,86.389 Z"/></defs><use fill="none" xlink:href="#mfid29"/><defs><path id="mfid30" d="M104.03,13.319 L1.98,13.319 L13.319,1.98 L115.37,1.98 L104.03,13.319 Z"/></defs></g><g fill="#7395bf" stroke="#000" stroke-linecap="round" stroke-linejoin="round" stroke-width=".96"><use fill-rule="evenodd" stroke="none" xlink:href="#mfid30"/><use fill="none" xlink:href="#mfid30"/><defs><path id="mfid31" d="M115.37,1.98 L104.03,13.319 L104.03,79.082 L115.37,67.744 L115.37,1.98 Z"/></defs><use fill-rule="evenodd" stroke="none" xlink:href="#mfid31"/><use fill="none" xlink:href="#mfid31"/></g><g fill="#afc2da" stroke="#000" stroke-linecap="round" stroke-linejoin="round" stroke-width=".96"><rect width="102.05" height="65.764" x="1.98" y="13.319" stroke="none"/><defs><path id="mfid32" d="M104.03,13.319 L1.98,13.319 L1.98,79.082 L104.03,79.082 L104.03,13.319 Z"/></defs><use fill="none" xlink:href="#mfid32"/></g><g><g fill="#000" stroke="#000" stroke-linecap="round" stroke-linejoin="round" stroke-width=".96"><g font-family="ARIAL" font-size=".111" font-weight="bold" transform="matrix(96, 0, 0, 96, 1.98, 13.319)"><text x=".254 .334 .396 .457 .519 .55 .63 .661 .729" y=".376 .376 .376 .376 .376 .376 .376 .376 .376" stroke="none" xml:space="preserve">Base DITA</text><defs><path id="mfid33" d="M137.43,13.319 L107.57,13.319 L118.91,1.98 L148.76,1.98 L137.43,13.319 Z"/></defs></g></g></g><g fill="#b0c5e3" stroke="#000" stroke-linecap="round" stroke-linejoin="round" stroke-width=".96"><use fill-rule="evenodd" stroke="none" xlink:href="#mfid33"/><use fill="none" xlink:href="#mfid33"/><defs><path id="mfid34" d="M148.76,1.98 L137.43,13.319 L137.43,79.082 L148.76,67.744 L148.76,1.98 Z"/></defs><use fill-rule="evenodd" stroke="none" xlink:href="#mfid34"/><use fill="none" xlink:href="#mfid34"/></g><g fill="#e8eef7" stroke="#000" stroke-linecap="round" stroke-linejoin="round" stroke-width=".96"><rect width="29.855" height="65.764" x="107.57" y="13.319" stroke="none"/><defs><path id="mfid35" d="M137.43,13.319 L107.57,13.319 L107.57,79.082 L137.43,79.082 L137.43,13.319 Z"/></defs><use fill="none" xlink:href="#mfid35"/><defs><path id="mfid36" d="M171.85,13.319 L142,13.319 L153.33,1.98 L183.19,1.98 L171.85,13.319 Z"/></defs></g><g fill="#b0c5e3" stroke="#000" stroke-linecap="round" stroke-linejoin="round" stroke-width=".96"><use fill-rule="evenodd" stroke="none" xlink:href="#mfid36"/><use fill="none" xlink:href="#mfid36"/><defs><path id="mfid37" d="M183.19,1.98 L171.85,13.319 L171.85,79.082 L183.19,67.744 L183.19,1.98 Z"/></defs><use fill-rule="evenodd" stroke="none" xlink:href="#mfid37"/><use fill="none" xlink:href="#mfid37"/></g><g fill="#e8eef7" stroke="#000" stroke-linecap="round" stroke-linejoin="round" stroke-width=".96"><rect width="29.855" height="65.764" x="142" y="13.319" stroke="none"/><defs><path id="mfid38" d="M171.85,13.319 L142,13.319 L142,79.082 L171.85,79.082 L171.85,13.319 Z"/></defs><use fill="none" xlink:href="#mfid38"/><defs><path id="mfid39" d="M205.67,13.319 L175.81,13.319 L187.15,1.98 L217,1.98 L205.67,13.319 Z"/></defs></g><g fill="#b0c5e3" stroke="#000" stroke-linecap="round" stroke-linejoin="round" stroke-width=".96"><use fill-rule="evenodd" stroke="none" xlink:href="#mfid39"/><use fill="none" xlink:href="#mfid39"/><defs><path id="mfid40" d="M217,1.98 L205.67,13.319 L205.67,79.082 L217,67.744 L217,1.98 Z"/></defs><use fill-rule="evenodd" stroke="none" xlink:href="#mfid40"/><use fill="none" xlink:href="#mfid40"/></g><g fill="#e8eef7" stroke="#000" stroke-linecap="round" stroke-linejoin="round" stroke-width=".96"><rect width="29.855" height="65.764" x="175.81" y="13.319" stroke="none"/><defs><path id="mfid41" d="M205.67,13.319 L175.81,13.319 L175.81,79.082 L205.67,79.082 L205.67,13.319 Z"/></defs><use fill="none" xlink:href="#mfid41"/><defs><path id="mfid42" d="M232.53,13.319 L210.24,13.319 L221.57,1.98 L243.87,1.98 L232.53,13.319 Z"/></defs></g><g fill="#a6a6a6" stroke="#000" stroke-linecap="round" stroke-linejoin="round" stroke-width=".96"><use fill-rule="evenodd" stroke="none" xlink:href="#mfid42"/><use fill="none" xlink:href="#mfid42"/><defs><path id="mfid43" d="M243.87,1.98 L232.53,13.319 L232.53,79.082 L243.87,67.744 L243.87,1.98 Z"/></defs><use fill-rule="evenodd" stroke="none" xlink:href="#mfid43"/><use fill="none" xlink:href="#mfid43"/></g><g fill="#d9d9d9" stroke="#000" stroke-linecap="round" stroke-linejoin="round" stroke-width=".96"><rect width="22.296" height="65.764" x="210.24" y="13.319" stroke="none"/><defs><path id="mfid44" d="M232.53,13.319 L210.24,13.319 L210.24,79.082 L232.53,79.082 L232.53,13.319 Z"/></defs><use fill="none" xlink:href="#mfid44"/></g><g><g fill="#164326" stroke="#000" stroke-linecap="round" stroke-linejoin="round" stroke-width=".96"><g font-family="ARIAL" font-size=".111"><text x=".121 .202 .232 .3 .374 .405 .436 .498" y=".045 .045 .045 .045 .045 .045 .045 .045" stroke="none" transform="matrix(0, 96, -96, 0, 130.48, 16.342)" xml:space="preserve">DITA for</text><text x=".087 .167 .229 .266 .328 .408 .47 .507" y=".179 .179 .179 .179 .179 .179 .179 .179" stroke="none" transform="matrix(0, 96, -96, 0, 130.48, 16.342)" xml:space="preserve">Hardware</text></g></g></g><g><g fill="#164326" stroke="#000" stroke-linecap="round" stroke-linejoin="round" stroke-width=".96"><g font-family="ARIAL" font-size=".111"><text x=".121 .202 .232 .3 .374 .405 .436 .498 .535" y=".045 .045 .045 .045 .045 .045 .045 .045 .045" stroke="none" transform="matrix(0, 96, -96, 0, 164.5, 16.342)" xml:space="preserve">DITA for</text><text x=".081 .143 .205 .266 .328 .365 .427 .452 .513" y=".179 .179 .179 .179 .179 .179 .179 .179 .179" stroke="none" transform="matrix(0, 96, -96, 0, 164.5, 16.342)" xml:space="preserve">eLearning</text></g></g></g><g><g fill="#164326" stroke="#000" stroke-linecap="round" stroke-linejoin="round" stroke-width=".96"><g font-family="ARIAL" font-size=".111"><text x=".121 .202 .232 .3 .374 .405 .436 .498 .535" y=".045 .045 .045 .045 .045 .045 .045 .045 .045" stroke="none" transform="matrix(0, 96, -96, 0, 198.52, 18.862)" xml:space="preserve">DITA for</text><text x=".109 .183 .245 .276 .306 .387 .449 .486" y=".179 .179 .179 .179 .179 .179 .179 .179" stroke="none" transform="matrix(0, 96, -96, 0, 198.52, 18.862)" xml:space="preserve">Software</text></g></g></g><g><g fill="#164326" stroke="#000" stroke-linecap="round" stroke-linejoin="round" stroke-width=".96"><g font-family="ARIAL" font-size=".111" transform="matrix(0, 96, -96, 0, 232.53, 16.342)"><text x=".189 .276 .306 .368 .43" y=".151 .151 .151 .151 .151" stroke="none" xml:space="preserve">Other</text><defs><path id="mfid45" d="M285.44,119.27 L281.9,119.27"/></defs></g></g></g><g fill="#164326" stroke="#000" stroke-linecap="round" stroke-linejoin="round" stroke-width=".96"><use fill="none" xlink:href="#mfid45"/></g><g><g fill="#164326" stroke="#000" stroke-linecap="round" stroke-linejoin="round" stroke-width=".96"><g font-family="ARIAL" font-size=".111"><text x=".09 .17 .232 .287 .361 .423 .485" y=".151 .151 .151 .151 .151 .151 .151" stroke="none" transform="matrix(0, 96, -96, 0, 277.89, 86.893)" xml:space="preserve">DocBook</text></g></g></g><g><g fill="#164326" stroke="#000" stroke-linecap="round" stroke-linejoin="round" stroke-width=".96"><g font-family="ARIAL" font-size=".111"><text x=".114" y=".151" stroke="none" transform="matrix(0, 96, -96, 0, 311.9, 86.893)" xml:space="preserve">S</text><text x=".188 .25 .312 .374" y=".151 .151 .151 .151" stroke="none" transform="matrix(0, 96, -96, 0, 311.9, 86.893)" xml:space="preserve">1000</text><text x=".435" y=".151" stroke="none" transform="matrix(0, 96, -96, 0, 311.9, 86.893)" xml:space="preserve">D</text></g></g></g><g><g fill="#164326" stroke="#000" stroke-linecap="round" stroke-linejoin="round" stroke-width=".96"><g font-family="ARIAL" font-size=".111"><text x=".127 .201 .281 .349 .441" y=".151 .151 .151 .151 .151" stroke="none" transform="matrix(0, 96, -96, 0, 345.92, 86.893)" xml:space="preserve">XHTML</text></g></g></g><g><g fill="#164326" stroke="#000" stroke-linecap="round" stroke-linejoin="round" stroke-width=".96"><g font-family="ARIAL" font-size=".111"><text x=".176 .262 .293 .355 .417" y=".151 .151 .151 .151 .151" stroke="none" transform="matrix(0, 96, -96, 0, 379.93, 86.893)" xml:space="preserve">Other</text></g></g></g><g><g fill="#164326" stroke="#000" stroke-linecap="round" stroke-linejoin="round" stroke-width=".96"><g font-family="ARIAL" font-size=".111"><text x=".176 .262 .293 .355 .417" y=".171 .171 .171 .171 .171" stroke="none" transform="matrix(0, 96, -96, 0, 485.76, 154.92)" xml:space="preserve">Other</text></g></g></g><g><g fill="#164326" stroke="#000" stroke-linecap="round" stroke-linejoin="round" stroke-width=".96"><g font-family="ARIAL" font-size=".111"><text x=".177 .251 .338 .43" y=".171 .171 .171 .171" stroke="none" transform="matrix(0, 96, -96, 0, 425.29, 154.92)" xml:space="preserve">SGML</text></g></g></g></g></g></g></svg></switch><rect width="511.398" height="292.734" x="0" y="1.44" class="st1"/></g></g></svg>