<svg xmlns="http://www.w3.org/2000/svg" xmlns:xlink="http://www.w3.org/1999/xlink" width="880.72" height="452.217" class="st11" color-interpolation-filters="sRGB" viewBox="0 0 660.54 339.163" xml:space="preserve"><style type="text/css">.st1{visibility:visible}.st2,.st3{stroke-linecap:round;stroke-linejoin:round;stroke-width:2.16}.st2{fill:#4979c0;fill-opacity:.2;stroke:#4979c0;stroke-opacity:.2}.st3{fill:url(#grad36-6);stroke:#000}.st4{fill:#000;font-family:Arial;font-size:.666664em}.st5{font-size:1em}.st6{fill:url(#grad36-21);stroke:#000;stroke-linecap:round;stroke-linejoin:round;stroke-width:2.16}.st7,.st8{stroke:#4677bf}.st7{marker-end:url(#mrkr4-71);stroke-linecap:round;stroke-linejoin:round;stroke-width:1.2}.st8{fill:#4677bf;fill-opacity:1;stroke-opacity:1;stroke-width:.32258064516129}.st9{fill:#fff;stroke:none;stroke-linecap:butt;stroke-width:7.2}.st10{marker-end:url(#mrkr13-113);marker-start:url(#mrkr13-111);stroke:#4677bf;stroke-linecap:round;stroke-linejoin:round;stroke-width:1.2}.st11{fill:none;fill-rule:evenodd;font-size:12;overflow:visible;stroke-linecap:square;stroke-miterlimit:3}</style><defs id="Patterns_And_Gradients"><radialGradient id="grad36-6" cx="0" cy="0" r="1"><stop offset="0" style="stop-color:#e8eef7;stop-opacity:1"/><stop offset="1" style="stop-color:#b7c9e3;stop-opacity:1"/></radialGradient><radialGradient id="grad36-21" cx="0" cy="0" r="1"><stop offset="0" style="stop-color:#e8eef7;stop-opacity:1"/><stop offset="1" style="stop-color:#f7fe9c;stop-opacity:1"/></radialGradient></defs><defs id="Markers"><g id="lend4"><path d="M 2 1 L -0 0 L 2 -1 L 2 1" style="stroke:none"/></g><marker id="mrkr4-71" class="st8" markerUnits="strokeWidth" orient="auto" refX="-6.2"><use transform="scale(-3.1,-3.1)" xlink:href="#lend4"/></marker><g id="lend13"><path d="M 3 1 L -0 0 L 3 -1 L 3 1" style="stroke:none"/></g><marker id="mrkr13-111" class="st8" markerUnits="strokeWidth" orient="auto" refX="9"><use transform="scale(3.1)" xlink:href="#lend13"/></marker><marker id="mrkr13-113" class="st8" markerUnits="strokeWidth" orient="auto" refX="-9.3"><use transform="scale(-3.1,-3.1)" xlink:href="#lend13"/></marker></defs><g><title>Page-1</title><g id="shape1-1" transform="translate(2.16,-294.483)"><title>Process</title><desc>Schema Designer</desc><g id="shadow1-2" class="st1" transform="matrix(1,0,0,1,4.25197,4.25197)"><rect width="70.866" height="42.52" x="0" y="296.643" class="st2"/></g><rect width="70.866" height="42.52" x="0" y="296.643" class="st3"/><text x="20.76" y="315.5" class="st4">Schema<tspan x="19.43" class="st5" dy="1.2em">Designer</tspan></text></g><g id="shape3-9" transform="translate(287.042,-11.0183)"><title>Process.3</title><desc>Information Developers</desc><g id="shadow3-10" class="st1" transform="matrix(1,0,0,1,4.25197,4.25197)"><rect width="70.866" height="42.52" x="0" y="296.643" class="st2"/></g><rect width="70.866" height="42.52" x="0" y="296.643" class="st3"/><text x="15.42" y="315.5" class="st4">Information <tspan x="15.2" class="st5" dy="1.2em">Developers</tspan></text></g><g id="shape4-16" transform="translate(147.436,-294.483)"><title>Document</title><desc>DTD or XSD</desc><g id="shadow4-17" class="st1"><path d="M0 333.85 L0 296.64 L70.87 296.64 L70.87 333.85 A32.185 32.185 -180 0 0 35.43 333.85 A32.185 32.185 0 0 1 0 333.85 Z" class="st2" transform="matrix(1,0,0,1,4.25197,4.25197)"/></g><path d="M0 333.85 L0 296.64 L70.87 296.64 L70.87 333.85 A32.185 32.185 -180 0 0 35.43 333.85 A32.185 32.185 0 0 1 0 333.85 Z" class="st6"/><text x="13.21" y="314.99" class="st4">DTD or XSD</text></g><g id="shape5-23" transform="translate(287.042,-294.483)"><title>Process.5</title><desc>OASIS</desc><g id="shadow5-24" class="st1" transform="matrix(1,0,0,1,4.25197,4.25197)"><rect width="70.866" height="42.52" x="0" y="296.643" class="st2"/></g><rect width="70.866" height="42.52" x="0" y="296.643" class="st3"/><text x="23.21" y="320.3" class="st4">OASIS</text></g><g id="shape6-29" transform="translate(12.7899,-11.0183)"><title>Document.6</title><desc>Guidelines</desc><g id="shadow6-30" class="st1"><path d="M0 333.85 L0 296.64 L70.87 296.64 L70.87 333.85 A32.185 32.185 -180 0 0 35.43 333.85 A32.185 32.185 0 0 1 0 333.85 Z" class="st2" transform="matrix(1,0,0,1,4.25197,4.25197)"/></g><path d="M0 333.85 L0 296.64 L70.87 296.64 L70.87 333.85 A32.185 32.185 -180 0 0 35.43 333.85 A32.185 32.185 0 0 1 0 333.85 Z" class="st6"/><text x="16.53" y="314.99" class="st4">Guidelines</text></g><g id="shape7-35" transform="translate(430.9,-11.0183)"><title>Document.7</title><desc>Topics</desc><g id="shadow7-36" class="st1"><path d="M0 333.85 L0 296.64 L70.87 296.64 L70.87 333.85 A32.185 32.185 -180 0 0 35.43 333.85 A32.185 32.185 0 0 1 0 333.85 Z" class="st2" transform="matrix(1,0,0,1,4.25197,4.25197)"/></g><path d="M0 333.85 L0 296.64 L70.87 296.64 L70.87 333.85 A32.185 32.185 -180 0 0 35.43 333.85 A32.185 32.185 0 0 1 0 333.85 Z" class="st6"/><text x="23.65" y="314.99" class="st4">Topics</text></g><g id="shape8-41" transform="translate(287.042,-131.491)"><title>Document.8</title><desc>Collection Definition</desc><g id="shadow8-42" class="st1"><path d="M0 333.85 L0 296.64 L70.87 296.64 L70.87 333.85 A32.185 32.185 -180 0 0 35.43 333.85 A32.185 32.185 0 0 1 0 333.85 Z" class="st2" transform="matrix(1,0,0,1,4.25197,4.25197)"/></g><path d="M0 333.85 L0 296.64 L70.87 296.64 L70.87 333.85 A32.185 32.185 -180 0 0 35.43 333.85 A32.185 32.185 0 0 1 0 333.85 Z" class="st6"/><text x="17.87" y="310.19" class="st4">Collection <tspan x="18.76" class="st5" dy="1.2em">Definition</tspan></text></g><g id="shape9-48" transform="translate(583.262,-131.491)"><title>Document.9</title><desc>Collection</desc><g id="shadow9-49" class="st1"><path d="M0 333.85 L0 296.64 L70.87 296.64 L70.87 333.85 A32.185 32.185 -180 0 0 35.43 333.85 A32.185 32.185 0 0 1 0 333.85 Z" class="st2" transform="matrix(1,0,0,1,4.25197,4.25197)"/></g><path d="M0 333.85 L0 296.64 L70.87 296.64 L70.87 333.85 A32.185 32.185 -180 0 0 35.43 333.85 A32.185 32.185 0 0 1 0 333.85 Z" class="st6"/><text x="17.87" y="314.99" class="st4">Collection</text></g><g id="shape10-54" transform="translate(287.042,-202.357)"><title>Process.10</title><desc>Publisher</desc><g id="shadow10-55" class="st1" transform="matrix(1,0,0,1,4.25197,4.25197)"><rect width="70.866" height="42.52" x="0" y="296.643" class="st2"/></g><rect width="70.866" height="42.52" x="0" y="296.643" class="st3"/><text x="18.76" y="320.3" class="st4">Publisher</text></g><g id="shape12-60" transform="translate(430.9,-202.357)"><title>Data</title><desc>Transformer</desc><g id="shadow12-61" class="st1"><path d="M-10.63 339.16 L60.24 339.16 L81.5 296.64 L10.63 296.64 L-10.63 339.16 Z" class="st2" transform="matrix(1,0,0,1,4.25197,4.25197)"/></g><path d="M-10.63 339.16 L60.24 339.16 L81.5 296.64 L10.63 296.64 L-10.63 339.16 Z" class="st6"/><text x="13.65" y="320.3" class="st4">Transformer</text></g><g id="shape15-66" transform="translate(175.782,-299.798)"><title>Dynamic connector.15</title><desc>Schema</desc><path d="M7.09 339.16 L7.09 457.51" class="st7"/><rect width="29.348" height="9.6" x="-6.879" y="421.98" class="st9"/><text x="-6.88" y="429.18" class="st4">Schema</text></g><g id="shape11-74" transform="translate(73.0261,-308.656)"><title>Dynamic connector</title><desc>Specifies or Specialises</desc><path d="M0 332.08 L66.97 332.08" class="st7"/><rect width="41.797" height="19.2" x="16.306" y="322.476" class="st9"/><text x="16.31" y="329.68" class="st4">Specifies or<tspan x="16.97" class="st5" dy="1.2em">Specialises</tspan></text></g><g id="shape13-82" transform="translate(287.042,-308.656)"><title>Dynamic connector.13</title><desc>DITA or DocBook</desc><path d="M0 332.08 L-61.3 332.08" class="st7"/><rect width="41.797" height="19.2" x="-55.269" y="322.476" class="st9"/><text x="-43.48" y="329.68" class="st4">DITA<tspan x="-55.27" class="st5" dy="1.2em">or DocBook</tspan></text></g><g id="shape14-90" transform="translate(182.869,-299.798)"><title>Dynamic connector.14</title><desc>Schema</desc><path d="M0 339.16 L0 365.74 L139.61 365.74 L139.61 386.64" class="st7"/><rect width="29.348" height="9.6" x="56.015" y="360.938" class="st9"/><text x="56.02" y="368.14" class="st4">Schema</text></g><g id="shape16-97" transform="translate(357.908,-216.53)"><title>Dynamic connector.16</title><desc>Writes Transformers</desc><path d="M0 332.08 L65.55 332.08" class="st7"/><rect width="47.563" height="19.2" x="12.715" y="322.476" class="st9"/><text x="25.16" y="329.68" class="st4">Writes<tspan x="12.71" class="st5" dy="1.2em">Transformers</tspan></text></g><g id="shape17-105" transform="translate(172.239,-131.491)"><title>Dynamic connector.17</title><desc>Contribute to, adhere to</desc><path d="M0 349.96 L0 350.32 L0 383.1 L-124.02 383.1 L-124.02 405.96" class="st10"/><rect width="84.054" height="9.6" x="-99.074" y="378.3" class="st9"/><text x="-99.07" y="385.5" class="st4">Contribute to, adhere to</text></g><g id="shape18-116" transform="translate(287.042,-25.1915)"><title>Dynamic connector.18</title><desc>Contribute to, adhere to</desc><path d="M-10.8 332.08 L-11.16 332.08 L-192.23 332.08" class="st10"/><rect width="84.054" height="9.6" x="-143.72" y="327.276" class="st9"/><text x="-143.72" y="334.48" class="st4">Contribute to, adhere to</text></g><g id="shape19-125" transform="translate(287.042,-223.617)"><title>Dynamic connector.19</title><desc>Contribute to, adhere to</desc><path d="M-10.8 339.16 L-11.16 339.16 L-99.45 339.16 A4.72441 4.72441 -180 0 0 -108.9 339.16 L-238.82 339.16 L-238.82 498.08" class="st10"/><rect width="84.054" height="9.6" x="-222.027" y="334.363" class="st9"/><text x="-222.03" y="341.56" class="st4">Contribute to, adhere to</text></g><g id="shape20-134" transform="translate(218.302,-145.664)"><title>Dynamic connector.20</title><desc>Creates Definition (ditamap)</desc><path d="M0 332.08 L61.3 332.08" class="st7"/><rect width="33.789" height="28.8" x="17.476" y="317.676" class="st9"/><text x="20.36" y="324.88" class="st4">Creates<tspan x="17.69" class="st5" dy="1.2em">Definition</tspan><tspan x="17.48" class="st5" dy="1.2em">(</tspan>ditamap)</text></g><g id="shape21-143" transform="translate(315.388,-174.01)"><title>Dynamic connector.21</title><path d="M7.09 339.16 L7.09 318.26" class="st7"/></g><g id="shape22-148" transform="translate(200.585,-131.491)"><title>Dynamic connector.22</title><desc>Need for topics</desc><path d="M0 339.16 L0 383.1 L121.89 383.1 L121.89 409.68" class="st7"/><rect width="53.804" height="9.6" x="29.082" y="378.3" class="st9"/><text x="29.08" y="385.5" class="st4">Need for topics</text></g><g id="shape23-155" transform="translate(357.908,-25.1915)"><title>Dynamic connector.23</title><desc>Writes topics</desc><path d="M0 332.08 L65.55 332.08" class="st7"/><rect width="45.785" height="9.6" x="13.604" y="327.276" class="st9"/><text x="13.6" y="334.48" class="st4">Writes topics</text></g><g id="shape24-162" transform="translate(466.333,-53.538)"><title>Dynamic connector.24</title><desc>Topics</desc><path d="M0 339.16 L0 239.95 L29.41 239.95" class="st7"/><rect width="23.563" height="9.6" x="-11.073" y="308.851" class="st9"/><text x="-11.07" y="316.05" class="st4">Topics</text></g><g id="shape25-169" transform="translate(503.184,-126.884)"><title>On-page reference</title><desc>Generates</desc><g id="shadow25-170" class="st1"><path d="M0 313.3 A25.8661 25.8661 0 0 1 51.73 313.3 A25.8661 25.8661 0 1 1 0 313.3 Z" class="st2" transform="matrix(1,0,0,1,4.25197,4.25197)"/></g><path d="M0 313.3 A25.8661 25.8661 0 0 1 51.73 313.3 A25.8661 25.8661 0 1 1 0 313.3 Z" class="st3"/><text x="7.19" y="315.7" class="st4">Generates</text></g><g id="shape26-175" transform="translate(466.333,-202.357)"><title>Dynamic connector.26</title><desc>XSL-T and XSL-FO</desc><path d="M0 339.16 L0 388.77 L29.41 388.77" class="st7"/><rect width="38.242" height="19.2" x="-15.578" y="348.184" class="st9"/><text x="-15.58" y="355.38" class="st4">XSL-T and<tspan x="-10.9" class="st5" dy="1.2em">XSL</tspan>-FO</text></g><g id="shape28-183" transform="translate(554.916,-145.664)"><title>Dynamic connector.28</title><path d="M0 332.08 L20.91 332.08" class="st7"/></g><g id="shape29-188" transform="translate(592.829,-6.41197)"><title>On-page reference.29</title><desc>Test</desc><g id="shadow29-189" class="st1"><path d="M0 313.3 A25.8661 25.8661 0 0 1 51.73 313.3 A25.8661 25.8661 0 1 1 0 313.3 Z" class="st2" transform="matrix(1,0,0,1,4.25197,4.25197)"/></g><path d="M0 313.3 A25.8661 25.8661 0 0 1 51.73 313.3 A25.8661 25.8661 0 1 1 0 313.3 Z" class="st3"/><text x="18.09" y="315.7" class="st4">Test</text></g><g id="shape27-194" transform="translate(357.908,-145.664)"><title>Dynamic connector.27</title><desc>dItamap or equivalent</desc><path d="M0 332.08 L137.84 332.08" class="st7"/><rect width="38.242" height="19.2" x="22.988" y="322.122" class="st9"/><text x="22.99" y="329.32" class="st4">dItamap or <tspan x="23.87" class="st5" dy="1.2em">equivalent</tspan></text></g><g id="shape30-202" transform="translate(611.609,-136.806)"><title>Dynamic connector.30</title><path d="M7.09 339.16 L7.09 410.38" class="st7"/></g><g id="shape2-207" transform="translate(147.436,-131.491)"><title>Process.2</title><desc>Information Architect</desc><g id="shadow2-208" class="st1" transform="matrix(1,0,0,1,4.25197,4.25197)"><rect width="70.866" height="42.52" x="0" y="296.643" class="st2"/></g><rect width="70.866" height="42.52" x="0" y="296.643" class="st3"/><text x="15.42" y="315.5" class="st4">Information<tspan x="19.87" class="st5" dy="1.2em">Architect</tspan></text></g></g></svg>