<svg xmlns="http://www.w3.org/2000/svg" xmlns:xlink="http://www.w3.org/1999/xlink" width="455.463" height="295.157" class="st2" color-interpolation-filters="sRGB" viewBox="0 0 341.597 221.368" xml:space="preserve"><style type="text/css">.st1{fill:none;stroke:none;stroke-linecap:round;stroke-linejoin:round;stroke-width:.72}.st2{fill:none;fill-rule:evenodd;font-size:12;overflow:visible;stroke-linecap:square;stroke-miterlimit:3}</style><g><title>Page-1</title><g id="shape1-1" transform="translate(0.72,-0.72)"><title>Sheet.1</title><rect width="340.157" height="219.928" x="0" y="1.44" class="st1"/><switch><svg width="340.157" height="219.928" x="0" y="1.44" clip="rect(0 0 0 0)" overflow="hidden" preserveAspectRatio="none" viewBox="0 0 803.99 519"><g><g><g fill="#d5eaff" transform="matrix(0.00010499, 0, 0, 0.00010499, -134, -157)"><rect width="1924100" height="1000100" x="4938700" y="1795500" stroke="none"/><defs><path id="mfid1" d="M4938700,1795500 L6862800,1795500 L6862800,2795600 L4938700,2795600 Z"/></defs></g><g fill="#d5eaff" stroke="#000" stroke-linecap="square" stroke-linejoin="round" stroke-width="9534.5" transform="matrix(0.00010499, 0, 0, 0.00010499, -134, -157)"><use fill="none" xlink:href="#mfid1"/><rect width="1933600" height="1000100" x="1290600" y="1509700" stroke="none"/><defs><path id="mfid2" d="M1290600,1509700 L3224200,1509700 L3224200,2509800 L1290600,2509800 Z"/></defs><use fill="none" xlink:href="#mfid2"/><defs><path id="mfid3" d="M1433500,1652600 L3005100,1652600"/></defs><use fill="none" xlink:href="#mfid3"/><defs><path id="mfid4" d="M1433500,1862100 L3005100,1862100"/></defs><use fill="none" xlink:href="#mfid4"/><defs><path id="mfid5" d="M1433500,2081200 L3005100,2081200"/></defs><use fill="none" xlink:href="#mfid5"/><defs><path id="mfid6" d="M1433500,2290800 L3005100,2290800"/></defs><use fill="none" xlink:href="#mfid6"/><defs><path id="mfid7" d="M2147900,1904600 L2257000,1904600 L2290800,1795500 L2324500,1904600 L2433600,1904600 L2345300,1972100 L2379100,2081200 L2290800,2013800 L2202500,2081200 L2236200,1972100 Z"/></defs></g><g fill="#0060c4" stroke="#000" stroke-linecap="square" stroke-linejoin="round" stroke-width="9534.5" transform="matrix(0.00010499, 0, 0, 0.00010499, -134, -157)"><use fill-rule="evenodd" stroke="none" xlink:href="#mfid7"/></g><g fill="#0060c4" stroke="#000" stroke-linecap="square" stroke-miterlimit="8" stroke-width="9534.5" transform="matrix(0.00010499, 0, 0, 0.00010499, -134, -157)"><use fill="none" xlink:href="#mfid7"/></g></g></g><g mask="url(#mfid8)"><g><g fill="none" stroke="#000" stroke-miterlimit="10"><g font-family="'Courier New',modern,monospace" font-size="32" font-style="normal" font-weight="700"><text x="0 19 38 57 76 95 114 133 152 172 191 210 229 248 267 287" y="0" fill="#000" stroke="none" transform="matrix(1, 0, 0, 1, 33.1, 117.8) translate(0,28)" xml:space="preserve">xref=&quot;ghi.dita&quot;</text></g></g></g></g><g mask="url(#mfid9)"><g><g fill="none" stroke="#000" stroke-miterlimit="10"><g font-family="'Tahoma',swiss,sans-serif" font-size="32" font-style="normal" font-weight="400"><text x="0 18 36 43 53 71 78 89 106" y="0" fill="#000" stroke="none" transform="matrix(1, 0, 0, 1, 520.6, 57.8) translate(0,32)" xml:space="preserve">ghi.dita</text></g></g></g></g><defs><path id="mfid10" d="M2576500,1826400 L4648200,1826400 L4648200,1719300 L4862500,1933600 L4648200,2147900 L4648200,2040700 L2576500,2040700 Z"/></defs><g><g><g fill="#0060c4" stroke="#000" stroke-linecap="square" stroke-miterlimit="8" stroke-width="9534.5" transform="matrix(0.00010499, 0, 0, 0.00010499, -134, -157)"><use fill-rule="evenodd" stroke="none" xlink:href="#mfid10"/><use fill="none" xlink:href="#mfid10"/></g><g fill="#d5eaff" stroke="#000" stroke-linecap="square" stroke-miterlimit="8" stroke-width="9534.5" transform="matrix(0.00010499, 0, 0, 0.00010499, -134, -157)"><rect width="1933600" height="1000100" x="5862600" y="5434000" stroke="none"/><defs><path id="mfid11" d="M5862600,5434000 L7796200,5434000 L7796200,6434100 L5862600,6434100 Z"/></defs></g><g fill="#d5eaff" stroke="#000" stroke-linecap="square" stroke-linejoin="round" stroke-width="9534.5" transform="matrix(0.00010499, 0, 0, 0.00010499, -134, -157)"><use fill="none" xlink:href="#mfid11"/><rect width="1924100" height="1000100" x="1366800" y="3938600" stroke="none"/><defs><path id="mfid12" d="M1366800,3938600 L3290900,3938600 L3290900,4938700 L1366800,4938700 Z"/></defs><use fill="none" xlink:href="#mfid12"/><defs><path id="mfid13" d="M1509700,4081500 L3081300,4081500"/></defs><use fill="none" xlink:href="#mfid13"/><defs><path id="mfid14" d="M1509700,4291000 L3081300,4291000"/></defs><use fill="none" xlink:href="#mfid14"/><defs><path id="mfid15" d="M1509700,4510100 L3081300,4510100"/></defs><use fill="none" xlink:href="#mfid15"/><defs><path id="mfid16" d="M1509700,4719600 L3081300,4719600"/></defs><use fill="none" xlink:href="#mfid16"/><defs><path id="mfid17" d="M2224100,4333500 L2333200,4333500 L2367000,4224300 L2400700,4333500 L2509800,4333500 L2421500,4400900 L2455300,4510100 L2367000,4442600 L2278700,4510100 L2312400,4400900 Z"/></defs></g><g fill="#0060c4" stroke="#000" stroke-linecap="square" stroke-linejoin="round" stroke-width="9534.5" transform="matrix(0.00010499, 0, 0, 0.00010499, -134, -157)"><use fill-rule="evenodd" stroke="none" xlink:href="#mfid17"/></g><g fill="#0060c4" stroke="#000" stroke-linecap="square" stroke-miterlimit="8" stroke-width="9534.5" transform="matrix(0.00010499, 0, 0, 0.00010499, -134, -157)"><use fill="none" xlink:href="#mfid17"/></g></g></g><g mask="url(#mfid18)"><g><g fill="none" stroke="#000" stroke-miterlimit="10"><g font-family="'Courier New',modern,monospace" font-size="32" font-style="normal" font-weight="700"><text x="0 19 38 57 76 95 114 133 152 172 191 210 229 248 268" y="0" fill="#000" stroke="none" transform="matrix(1, 0, 0, 1, 40.6, 372.8) translate(0,28)" xml:space="preserve">keyref=&quot;specs&quot;</text></g></g></g></g><g mask="url(#mfid19)"><g><g fill="none" stroke="#000" stroke-miterlimit="10"><g font-family="'Tahoma',swiss,sans-serif" font-size="32" font-style="normal" font-weight="400"><text x="0 18 36 43 53 71 78 89 106" y="0" fill="#000" stroke="none" transform="matrix(1, 0, 0, 1, 618.1, 440.3) translate(0,32)" xml:space="preserve">ghi.dita</text></g></g></g></g><defs><path id="mfid20" d="M2652700,4255300 L4724400,4255300 L4724400,4148100 L4938700,4362500 L4724400,4576800 L4724400,4469600 L2652700,4469600 Z"/></defs><g><g><g fill="#0060c4" stroke="#000" stroke-linecap="square" stroke-miterlimit="8" stroke-width="9534.5" transform="matrix(0.00010499, 0, 0, 0.00010499, -134, -157)"><use fill-rule="evenodd" stroke="none" xlink:href="#mfid20"/><use fill="none" xlink:href="#mfid20"/></g><g fill="#ffc" stroke="#000" stroke-linecap="square" stroke-miterlimit="8" stroke-width="9534.5" transform="matrix(0.00010499, 0, 0, 0.00010499, -134, -157)"><rect width="857250" height="1714500" x="5148300" y="3367100" stroke="none"/><defs><path id="mfid21" d="M5148300,3367100 L6005500,3367100 L6005500,5081600 L5148300,5081600 Z"/></defs></g><g fill="#ffc" stroke="#000" stroke-linecap="square" stroke-linejoin="round" stroke-width="9534.5" transform="matrix(0.00010499, 0, 0, 0.00010499, -134, -157)"><use fill="none" xlink:href="#mfid21"/><defs><path id="mfid22" d="M5291100,3576600 L5862600,3576600"/></defs><use fill="none" xlink:href="#mfid22"/><defs><path id="mfid23" d="M5291100,3795700 L5862600,3795700"/></defs><use fill="none" xlink:href="#mfid23"/><defs><path id="mfid24" d="M5291100,4005300 L5862600,4005300"/></defs><use fill="none" xlink:href="#mfid24"/><defs><path id="mfid25" d="M5291100,4224300 L5862600,4224300"/></defs><use fill="none" xlink:href="#mfid25"/><defs><path id="mfid26" d="M5291100,4224300 L5862600,4224300"/></defs><use fill="none" xlink:href="#mfid26"/><defs><path id="mfid27" d="M5291100,4433900 L5862600,4433900"/></defs><use fill="none" xlink:href="#mfid27"/><defs><path id="mfid28" d="M5291100,4653000 L5862600,4653000"/></defs><use fill="none" xlink:href="#mfid28"/><defs><path id="mfid29" d="M5291100,4862500 L5862600,4862500"/></defs><use fill="none" xlink:href="#mfid29"/><defs><path id="mfid30" d="M6005500,4279100 L6499600,4279100 L6499600,5236400 L6400800,5236400 L6598400,5434000 L6796100,5236400 L6697300,5236400 L6697300,4081500 L6005500,4081500 Z"/></defs></g><g fill="#0060c4" stroke="#000" stroke-linecap="square" stroke-linejoin="round" stroke-width="9534.5" transform="matrix(0.00010499, 0, 0, 0.00010499, -134, -157)"><use fill-rule="evenodd" stroke="none" xlink:href="#mfid30"/></g><g fill="#0060c4" stroke="#000" stroke-linecap="square" stroke-miterlimit="8" stroke-width="9534.5" transform="matrix(0.00010499, 0, 0, 0.00010499, -134, -157)"><use fill="none" xlink:href="#mfid30"/></g></g></g><g mask="url(#mfid31)"><g><g fill="none" stroke="#000" stroke-miterlimit="10"><g font-family="'Courier New',modern,monospace" font-size="32" font-style="normal" font-weight="700"><text x="0 19 38 57 76 95 114 133 152 172 191 210 229 248 268" y="0" fill="#000" stroke="none" transform="matrix(1, 0, 0, 1, 468.1, 207.8) translate(0,28)" xml:space="preserve">specs=ghi.dita</text></g></g></g></g></svg></switch><rect width="340.157" height="219.928" x="0" y="1.44" class="st1"/></g></g></svg>