<svg xmlns="http://www.w3.org/2000/svg" xmlns:xlink="http://www.w3.org/1999/xlink" width="265.207" height="140.483" class="st6" color-interpolation-filters="sRGB" viewBox="0 0 198.905 105.362" xml:space="preserve"><style type="text/css">.st1{fill:#e8eef7;stroke:#000;stroke-linecap:round;stroke-linejoin:round;stroke-width:.24}.st2,.st3{fill:#000;font-family:Arial;font-size:.833336em}.st3{font-style:italic}.st4,.st5{stroke:#000}.st4{marker-end:url(#mrkr13-21);stroke-linecap:round;stroke-linejoin:round;stroke-width:.72}.st5{fill:#000;fill-opacity:1;stroke-opacity:1;stroke-width:.22222222222222}.st6{fill:none;fill-rule:evenodd;font-size:12;overflow:visible;stroke-linecap:square;stroke-miterlimit:3}</style><defs id="Markers"><g id="lend13"><path d="M 3 1 L -0 0 L 3 -1 L 3 1" style="stroke:none"/></g><marker id="mrkr13-21" class="st5" markerUnits="strokeWidth" orient="auto" refX="-13.5"><use transform="scale(-4.5,-4.5)" xlink:href="#lend13"/></marker></defs><g><title>Page-1</title><g id="shape1-1" transform="translate(71.1061,-85.2794)"><title>Sheet.1</title><desc>topic</desc><rect width="56.693" height="19.843" x="0" y="85.519" class="st1"/><text x="17.78" y="98.44" class="st2">topic</text></g><g id="shape3-4" transform="translate(71.1061,-39.925)"><title>Sheet.3</title><desc>task</desc><rect width="56.693" height="19.843" x="0" y="85.519" class="st1"/><text x="19.18" y="98.44" class="st2">task</text></g><g id="shape4-7" transform="translate(141.972,-39.925)"><title>Sheet.4</title><desc>reference</desc><rect width="56.693" height="19.843" x="0" y="85.519" class="st1"/><text x="7.22" y="98.44" class="st2">reference</text></g><g id="shape5-10" transform="translate(0.24,-39.925)"><title>Sheet.5</title><desc>concept</desc><rect width="56.693" height="19.843" x="0" y="85.519" class="st1"/><text x="10.83" y="98.44" class="st2">concept</text></g><g id="shape6-13" transform="translate(141.972,-0.24)"><title>Sheet.6</title><desc>errormsg</desc><rect width="56.693" height="19.843" x="0" y="85.519" class="st1"/><text x="8.34" y="98.44" class="st3">errormsg</text></g><g id="shape7-16" transform="translate(135.141,119.216) rotate(160.201)"><title>Sheet.7</title><path d="M0 105.36 L65.6 105.36" class="st4"/></g><g id="shape8-22" transform="translate(204.814,20.555) rotate(90)"><title>Sheet.8</title><path d="M0 105.36 L15.32 105.36" class="st4"/></g><g id="shape9-27" transform="translate(135.141,-79.0512) rotate(19.7989)"><title>Sheet.9</title><path d="M0 105.36 L65.6 105.36" class="st4"/></g><g id="shape10-32" transform="translate(275.681,65.4369) rotate(90)"><title>Sheet.10</title><path d="M0 105.36 L10.12 105.36" class="st4"/></g></g></svg>