<svg xmlns="http://www.w3.org/2000/svg" xmlns:xlink="http://www.w3.org/1999/xlink" width="303.002" height="144.262" class="st8" color-interpolation-filters="sRGB" viewBox="0 0 227.252 108.197" xml:space="preserve"><style type="text/css">.st1{fill:#e8eef7;stroke:#000;stroke-linecap:round;stroke-linejoin:round;stroke-width:.24}.st2{fill:#000;font-family:Arial;font-size:.833336em}.st3{fill:none;stroke-dasharray:1.68,1.2;stroke-linecap:round;stroke-linejoin:round;stroke-width:.24}.st3,.st4,.st5{stroke:#000}.st4{marker-end:url(#mrkr13-18);stroke-linecap:round;stroke-linejoin:round;stroke-width:.72}.st5{fill:#000;fill-opacity:1;stroke-opacity:1;stroke-width:.22222222222222}.st6,.st7{stroke:#000;stroke-linecap:round;stroke-linejoin:round}.st6{fill:#fff;stroke-width:.24}.st7{marker-end:url(#mrkr13-18);stroke-dasharray:5.04,3.6;stroke-width:.72}.st8{fill:none;fill-rule:evenodd;font-size:12;overflow:visible;stroke-linecap:square;stroke-miterlimit:3}</style><defs id="Markers"><g id="lend13"><path d="M 3 1 L -0 0 L 3 -1 L 3 1" style="stroke:none"/></g><marker id="mrkr13-18" class="st5" markerUnits="strokeWidth" orient="auto" refX="-13.5"><use transform="scale(-4.5,-4.5)" xlink:href="#lend13"/></marker></defs><g><title>Page-1</title><g id="shape18-1" transform="translate(85.2794,-88.114)"><title>Sheet.18</title><desc>topic</desc><rect width="56.693" height="19.843" x="0" y="88.354" class="st1"/><text x="17.78" y="101.28" class="st2">topic</text></g><g id="shape19-4" transform="translate(85.2794,-42.7597)"><title>Sheet.19</title><desc>task</desc><path d="M0 108.2 L56.69 108.2 L56.69 88.35 L0 88.35 L0 108.2 Z" class="st3"/><text x="19.18" y="101.28" class="st2">task</text></g><g id="shape20-7" transform="translate(170.319,-42.7597)"><title>Sheet.20</title><desc>reference</desc><rect width="56.693" height="19.843" x="0" y="88.354" class="st1"/><text x="7.22" y="101.28" class="st2">reference</text></g><g id="shape21-10" transform="translate(0.24,-42.7597)"><title>Sheet.21</title><desc>concept</desc><rect width="56.693" height="19.843" x="0" y="88.354" class="st1"/><text x="10.83" y="101.28" class="st2">concept</text></g><g id="shape22-13" transform="translate(151.053,122.111) rotate(160.56)"><title>Sheet.22</title><path d="M0 108.2 L66.93 108.2" class="st4"/></g><g id="shape23-19" transform="translate(222.273,22.3133) rotate(91.0633)"><title>Sheet.23</title><path d="M0 108.2 L15.57 108.2" class="st4"/></g><g id="shape24-24" transform="translate(150.043,-81.2605) rotate(19.4101)"><title>Sheet.24</title><path d="M0 108.2 L64.93 108.2" class="st4"/></g><g id="shape25-29" transform="translate(28.5865,-0.24)"><title>Sheet.25</title><desc>strict task</desc><rect width="70.866" height="19.843" x="0" y="88.354" class="st6"/><text x="14.32" y="101.28" class="st2">strict task</text></g><g id="shape26-32" transform="translate(127.799,-0.24)"><title>Sheet.26</title><desc>general task</desc><rect width="70.866" height="19.843" x="0" y="88.354" class="st6"/><text x="8.19" y="101.28" class="st2">general task</text></g><g id="shape27-35" transform="translate(177.004,146.304) rotate(138.366)"><title>Sheet.27</title><path d="M0 108.2 L24.41 108.2" class="st7"/></g><g id="shape28-40" transform="translate(194.012,-15.4302) rotate(41.6335)"><title>Sheet.28</title><path d="M0 108.2 L24.41 108.2" class="st7"/></g></g></svg>