<svg xmlns="http://www.w3.org/2000/svg" xmlns:xlink="http://www.w3.org/1999/xlink" width="340.797" height="170.719" class="st8" color-interpolation-filters="sRGB" viewBox="0 0 255.598 128.039" xml:space="preserve"><style type="text/css">.st1{fill:none;stroke:#000;stroke-dasharray:1.68,1.2;stroke-linecap:round;stroke-linejoin:round;stroke-width:.24}.st2{fill:#000;font-family:Arial;font-size:.833336em}.st3{fill:#e8eef7;stroke-linecap:round;stroke-linejoin:round;stroke-width:.24}.st3,.st4,.st5{stroke:#000}.st4{marker-end:url(#mrkr13-15);stroke-linecap:round;stroke-linejoin:round;stroke-width:.72}.st5{fill:#000;fill-opacity:1;stroke-opacity:1;stroke-width:.22222222222222}.st6,.st7{stroke:#000;stroke-linecap:round;stroke-linejoin:round}.st6{fill:#fff;stroke-width:.24}.st7{marker-end:url(#mrkr13-15);stroke-dasharray:5.04,3.6;stroke-width:.72}.st8{fill:none;fill-rule:evenodd;font-size:12;overflow:visible;stroke-linecap:square;stroke-miterlimit:3}</style><defs id="Markers"><g id="lend13"><path d="M 3 1 L -0 0 L 3 -1 L 3 1" style="stroke:none"/></g><marker id="mrkr13-15" class="st5" markerUnits="strokeWidth" orient="auto" refX="-13.5"><use transform="scale(-4.5,-4.5)" xlink:href="#lend13"/></marker></defs><g><title>Page-1</title><g id="shape19-1" transform="translate(99.4526,-62.6022)"><title>Sheet.19</title><desc>task</desc><path d="M0 128.04 L56.69 128.04 L56.69 108.2 L0 108.2 L0 128.04 Z" class="st1"/><text x="19.18" y="121.12" class="st2">task</text></g><g id="shape20-4" transform="translate(198.665,-62.6022)"><title>Sheet.20</title><desc>reference</desc><rect width="56.693" height="19.843" x="0" y="108.197" class="st3"/><text x="7.22" y="121.12" class="st2">reference</text></g><g id="shape21-7" transform="translate(0.24,-62.6022)"><title>Sheet.21</title><desc>concept</desc><rect width="56.693" height="19.843" x="0" y="108.197" class="st3"/><text x="10.83" y="121.12" class="st2">concept</text></g><g id="shape22-10" transform="translate(162.832,143.395) rotate(164.384)"><title>Sheet.22</title><path d="M0 128.04 L85.05 128.04" class="st4"/></g><g id="shape23-16" transform="translate(255.838,20.4605) rotate(90)"><title>Sheet.23</title><path d="M0 128.04 L15.41 128.04" class="st4"/></g><g id="shape24-21" transform="translate(162.819,-102.984) rotate(15.6551)"><title>Sheet.24</title><path d="M0 128.04 L84 128.04" class="st4"/></g><g id="shape25-26" transform="translate(49.8463,-28.5865)"><title>Sheet.25</title><desc>strict task</desc><rect width="70.866" height="19.843" x="0" y="108.197" class="st6"/><text x="14.32" y="121.12" class="st2">strict task</text></g><g id="shape26-29" transform="translate(134.886,-28.5865)"><title>Sheet.26</title><desc>general task</desc><rect width="70.866" height="19.843" x="0" y="108.197" class="st6"/><text x="8.19" y="121.12" class="st2">general task</text></g><g id="shape27-32" transform="translate(191.987,170.84) rotate(145.408)"><title>Sheet.27</title><path d="M0 128.04 L15.24 128.04" class="st7"/></g><g id="shape28-37" transform="translate(210.724,-38.7528) rotate(35.5377)"><title>Sheet.28</title><path d="M0 128.04 L14.66 128.04" class="st7"/></g><g id="shape29-42" transform="translate(0.24,-0.24)"><title>Sheet.29</title><desc>glossentry</desc><rect width="56.693" height="19.843" x="0" y="108.197" class="st6"/><text x="5.56" y="121.12" class="st2">glossentry</text></g><g id="shape30-45" transform="translate(156.626,65.4369) rotate(90)"><title>Sheet.30</title><path d="M0 128.04 L32.8 128.04" class="st4"/></g><g id="shape18-50" transform="translate(99.4526,-107.957)"><title>Sheet.18</title><desc>topic</desc><rect width="56.693" height="19.843" x="0" y="108.197" class="st3"/><text x="17.78" y="121.12" class="st2">topic</text></g></g></svg>