<svg xmlns="http://www.w3.org/2000/svg" xmlns:xlink="http://www.w3.org/1999/xlink" width="265.207" height="87.569" class="st5" color-interpolation-filters="sRGB" viewBox="0 0 198.905 65.677" xml:space="preserve"><style type="text/css">.st1{fill:#e8eef7;stroke:#000;stroke-linecap:round;stroke-linejoin:round;stroke-width:.24}.st2{fill:#000;font-family:Arial;font-size:.833336em}.st3,.st4{stroke:#000}.st3{marker-end:url(#mrkr13-18);stroke-linecap:round;stroke-linejoin:round;stroke-width:.72}.st4{fill:#000;fill-opacity:1;stroke-opacity:1;stroke-width:.22222222222222}.st5{fill:none;fill-rule:evenodd;font-size:12;overflow:visible;stroke-linecap:square;stroke-miterlimit:3}</style><defs id="Markers"><g id="lend13"><path d="M 3 1 L -0 0 L 3 -1 L 3 1" style="stroke:none"/></g><marker id="mrkr13-18" class="st4" markerUnits="strokeWidth" orient="auto" refX="-13.5"><use transform="scale(-4.5,-4.5)" xlink:href="#lend13"/></marker></defs><g><title>Page-1</title><g id="shape1-1" transform="translate(71.1061,-45.5943)"><title>Sheet.1</title><desc>topic</desc><rect width="56.693" height="19.843" x="0" y="45.834" class="st1"/><text x="17.78" y="58.76" class="st2">topic</text></g><g id="shape3-4" transform="translate(71.1061,-0.24)"><title>Sheet.3</title><desc>task</desc><rect width="56.693" height="19.843" x="0" y="45.834" class="st1"/><text x="19.18" y="58.76" class="st2">task</text></g><g id="shape4-7" transform="translate(141.972,-0.24)"><title>Sheet.4</title><desc>reference</desc><rect width="56.693" height="19.843" x="0" y="45.834" class="st1"/><text x="7.22" y="58.76" class="st2">reference</text></g><g id="shape5-10" transform="translate(0.24,-0.24)"><title>Sheet.5</title><desc>concept</desc><rect width="56.693" height="19.843" x="0" y="45.834" class="st1"/><text x="10.83" y="58.76" class="st2">concept</text></g><g id="shape7-13" transform="translate(121.699,81.877) rotate(160.201)"><title>Sheet.7</title><path d="M0 65.68 L65.6 65.68" class="st3"/></g><g id="shape8-19" transform="translate(165.129,20.555) rotate(90)"><title>Sheet.8</title><path d="M0 65.68 L15.32 65.68" class="st3"/></g><g id="shape9-24" transform="translate(121.699,-41.712) rotate(19.7989)"><title>Sheet.9</title><path d="M0 65.68 L65.6 65.68" class="st3"/></g></g></svg>