<svg xmlns="http://www.w3.org/2000/svg" xmlns:xlink="http://www.w3.org/1999/xlink" width="579.868" height="560.97" class="st11" color-interpolation-filters="sRGB" viewBox="0 0 434.901 420.728" xml:space="preserve"><style type="text/css">.st1{fill:#dde2cd;stroke:#000;stroke-linecap:round;stroke-linejoin:round;stroke-width:1.2}.st2{fill:#fdefe3}.st2,.st3,.st4{stroke:#000;stroke-linecap:round;stroke-linejoin:round;stroke-width:1.2}.st4{fill:none;stroke:none;stroke-width:.72}.st5,.st6{fill:#000;font-family:Arial;font-size:.666664em}.st6{font-size:.75em;font-weight:700}.st7{stroke:#000;stroke-linecap:round;stroke-linejoin:round;stroke-width:.24}.st8,.st9{stroke:#3475cd}.st8{marker-end:url(#mrkr13-50);stroke-linecap:round;stroke-linejoin:round;stroke-width:2.16}.st9{fill:#3475cd;fill-opacity:1;stroke-opacity:1;stroke-width:.46153846153846}.st10{fill:#ffc;stroke:#000;stroke-linecap:round;stroke-linejoin:round;stroke-width:1.2}.st11{fill:none;fill-rule:evenodd;font-size:12;overflow:visible;stroke-linecap:square;stroke-miterlimit:3}</style><defs id="Patterns_And_Gradients"><radialGradient id="grad36-47" cx="0" cy="0" r="1"><stop offset="0" style="stop-color:#e8eef7;stop-opacity:1"/><stop offset="1" style="stop-color:#b7c9e3;stop-opacity:1"/></radialGradient></defs><defs id="Markers"><g id="lend13"><path d="M 3 1 L -0 0 L 3 -1 L 3 1" style="stroke:none"/></g><marker id="mrkr13-50" class="st9" markerUnits="strokeWidth" orient="auto" refX="-6.5"><use transform="scale(-2.1666666666667,-2.1666666666667)" xlink:href="#lend13"/></marker></defs><g><title>Page-1</title><g id="shape26-1" transform="translate(1.2,-164.409)"><title>Sheet.26</title><rect width="113.386" height="141.732" x="0" y="278.995" class="st1"/></g><g id="shape31-3" transform="translate(15.3732,-178.583)"><title>Sheet.31</title><rect width="85.039" height="70.866" x="0" y="349.861" class="st2"/></g><g id="group32-5" transform="translate(23.1685,-188.504)"><title>Sheet.32</title><g id="group33-6" transform="translate(0,-42.5197)"><title>Sheet.33</title><g id="shape34-7" transform="translate(10.5939,-4.25197)"><title>Sheet.34</title><path d="M0 420.73 L58.85 420.73" class="st3"/></g><g id="shape35-10"><title>Sheet.35</title><desc>1</desc><rect width="9.417" height="8.504" x="0" y="412.224" class="st4"/><text x="2" y="418.88" class="st5">1</text></g></g><g id="group36-13" transform="translate(0,-28.3465)"><title>Sheet.36</title><g id="shape37-14" transform="translate(10.5939,-4.25197)"><title>Sheet.37</title><path d="M0 420.73 L58.85 420.73" class="st3"/></g><g id="shape38-17"><title>Sheet.38</title><desc>2</desc><rect width="9.417" height="8.504" x="0" y="412.224" class="st4"/><text x="2" y="418.88" class="st5">2</text></g></g><g id="group52-20" transform="translate(0,-14.1732)"><title>Sheet.52</title><g id="shape53-21" transform="translate(10.5939,-4.25197)"><title>Sheet.53</title><path d="M0 420.73 L58.85 420.73" class="st3"/></g><g id="shape54-24"><title>Sheet.54</title><desc>3</desc><rect width="9.417" height="8.504" x="0" y="412.224" class="st4"/><text x="2" y="418.88" class="st5">3</text></g></g><g id="group55-27"><title>Sheet.55</title><g id="shape56-28" transform="translate(10.5939,-4.25197)"><title>Sheet.56</title><path d="M0 420.73 L58.85 420.73" class="st3"/></g><g id="shape57-31"><title>Sheet.57</title><desc>4</desc><rect width="9.417" height="8.504" x="0" y="412.224" class="st4"/><text x="2" y="418.88" class="st5">4</text></g></g></g><g id="shape27-34" transform="translate(11.1213,-283.465)"><title>Sheet.27</title><desc>High Level Process</desc><rect width="93.543" height="17.008" x="0" y="403.72" class="st4"/><text x="2" y="414.92" class="st6">High Level Process</text></g><g id="shape28-37" transform="translate(15.3732,-274.961)"><title>Sheet.28</title><path d="M0 420.73 L85.04 420.73" class="st7"/></g><g id="shape29-40" transform="translate(15.3732,-263.622)"><title>Sheet.29</title><path d="M0 420.73 L85.04 420.73" class="st7"/></g><g id="shape117-43" transform="translate(100.413,-235.276)"><title>Sheet.117</title><path d="M0 420.73 L56.69 420.73 L56.69 279 L71 279" class="st8"/></g><g id="shape118-51" transform="translate(100.413,-221.102)"><title>Sheet.118</title><path d="M0 420.73 L76.54 420.73 L76.54 378.21 L198.56 378.21" class="st8"/></g><g id="shape119-57" transform="translate(100.413,-178.583)"><title>Sheet.119</title><path d="M0 392.38 L62.36 392.38 L62.36 420.73 L71 420.73" class="st8"/></g><g id="shape120-63" transform="translate(100.413,-65.1969)"><title>Sheet.120</title><path d="M0 293.17 L42.52 293.17 L42.52 420.73 L198.56 420.73" class="st8"/></g><g id="group61-69" transform="translate(185.452,-277.795)"><title>Sheet.61</title><g id="shape30-70"><title>Sheet.30</title><rect width="113.386" height="141.732" x="0" y="278.995" class="st2"/></g><g id="shape62-72" transform="translate(14.1732,-21.2598)"><title>Sheet.62</title><rect width="85.039" height="70.866" x="0" y="349.861" class="st10"/></g><g id="shape58-74" transform="translate(14.1732,-104.882)"><title>Sheet.58</title><path d="M0 420.73 L85.04 420.73" class="st7"/></g><g id="group59-77" transform="translate(21.9685,-38.2677)"><title>Sheet.59</title><g id="group64-78" transform="translate(0,-28.3465)"><title>Sheet.64</title><g id="shape65-79" transform="translate(10.5939,-4.25197)"><title>Sheet.65</title><path d="M0 420.73 L58.85 420.73" class="st3"/></g><g id="shape66-82"><title>Sheet.66</title><desc>1</desc><rect width="9.417" height="8.504" x="0" y="412.224" class="st4"/><text x="2" y="418.88" class="st5">1</text></g></g><g id="group67-85" transform="translate(0,-14.1732)"><title>Sheet.67</title><g id="shape68-86" transform="translate(10.5939,-4.25197)"><title>Sheet.68</title><path d="M0 420.73 L58.85 420.73" class="st3"/></g><g id="shape69-89"><title>Sheet.69</title><desc>2</desc><rect width="9.417" height="8.504" x="0" y="412.224" class="st4"/><text x="2" y="418.88" class="st5">2</text></g></g><g id="group70-92"><title>Sheet.70</title><g id="shape71-93" transform="translate(10.5939,-4.25197)"><title>Sheet.71</title><path d="M0 420.73 L58.85 420.73" class="st3"/></g><g id="shape72-96"><title>Sheet.72</title><desc>3</desc><rect width="9.417" height="8.504" x="0" y="412.224" class="st4"/><text x="2" y="418.88" class="st5">3</text></g></g></g><g id="shape60-99" transform="translate(9.92126,-113.386)"><title>Sheet.60</title><desc>Procedure 1</desc><rect width="93.543" height="17.008" x="0" y="403.72" class="st4"/><text x="2" y="414.92" class="st6">Procedure 1</text></g></g><g id="group86-102" transform="translate(313.011,-192.756)"><title>Sheet.86</title><g id="shape63-103"><title>Sheet.63</title><rect width="113.386" height="141.732" x="0" y="278.995" class="st2"/></g><g id="shape73-105" transform="translate(14.1732,-21.2598)"><title>Sheet.73</title><rect width="85.039" height="70.866" x="0" y="349.861" class="st10"/></g><g id="shape74-107" transform="translate(14.1732,-104.882)"><title>Sheet.74</title><path d="M0 420.73 L85.04 420.73" class="st7"/></g><g id="group75-110" transform="translate(21.9685,-38.2677)"><title>Sheet.75</title><g id="group76-111" transform="translate(0,-28.3465)"><title>Sheet.76</title><g id="shape77-112" transform="translate(10.5939,-4.25197)"><title>Sheet.77</title><path d="M0 420.73 L58.85 420.73" class="st3"/></g><g id="shape78-115"><title>Sheet.78</title><desc>1</desc><rect width="9.417" height="8.504" x="0" y="412.224" class="st4"/><text x="2" y="418.88" class="st5">1</text></g></g><g id="group79-118" transform="translate(0,-14.1732)"><title>Sheet.79</title><g id="shape80-119" transform="translate(10.5939,-4.25197)"><title>Sheet.80</title><path d="M0 420.73 L58.85 420.73" class="st3"/></g><g id="shape81-122"><title>Sheet.81</title><desc>2</desc><rect width="9.417" height="8.504" x="0" y="412.224" class="st4"/><text x="2" y="418.88" class="st5">2</text></g></g><g id="group82-125"><title>Sheet.82</title><g id="shape83-126" transform="translate(10.5939,-4.25197)"><title>Sheet.83</title><path d="M0 420.73 L58.85 420.73" class="st3"/></g><g id="shape84-129"><title>Sheet.84</title><desc>3</desc><rect width="9.417" height="8.504" x="0" y="412.224" class="st4"/><text x="2" y="418.88" class="st5">3</text></g></g></g><g id="shape85-132" transform="translate(9.92126,-113.386)"><title>Sheet.85</title><desc>Procedure 2</desc><rect width="93.543" height="17.008" x="0" y="403.72" class="st4"/><text x="2" y="414.92" class="st6">Procedure 2</text></g></g><g id="group101-135" transform="translate(185.452,-79.3701)"><title>Sheet.101</title><g id="shape87-136"><title>Sheet.87</title><rect width="113.386" height="141.732" x="0" y="278.995" class="st2"/></g><g id="shape88-138" transform="translate(14.1732,-21.2598)"><title>Sheet.88</title><rect width="85.039" height="70.866" x="0" y="349.861" class="st10"/></g><g id="shape89-140" transform="translate(14.1732,-104.882)"><title>Sheet.89</title><path d="M0 420.73 L85.04 420.73" class="st7"/></g><g id="group90-143" transform="translate(21.9685,-38.2677)"><title>Sheet.90</title><g id="group91-144" transform="translate(0,-28.3465)"><title>Sheet.91</title><g id="shape92-145" transform="translate(10.5939,-4.25197)"><title>Sheet.92</title><path d="M0 420.73 L58.85 420.73" class="st3"/></g><g id="shape93-148"><title>Sheet.93</title><desc>1</desc><rect width="9.417" height="8.504" x="0" y="412.224" class="st4"/><text x="2" y="418.88" class="st5">1</text></g></g><g id="group94-151" transform="translate(0,-14.1732)"><title>Sheet.94</title><g id="shape95-152" transform="translate(10.5939,-4.25197)"><title>Sheet.95</title><path d="M0 420.73 L58.85 420.73" class="st3"/></g><g id="shape96-155"><title>Sheet.96</title><desc>2</desc><rect width="9.417" height="8.504" x="0" y="412.224" class="st4"/><text x="2" y="418.88" class="st5">2</text></g></g><g id="group97-158"><title>Sheet.97</title><g id="shape98-159" transform="translate(10.5939,-4.25197)"><title>Sheet.98</title><path d="M0 420.73 L58.85 420.73" class="st3"/></g><g id="shape99-162"><title>Sheet.99</title><desc>3</desc><rect width="9.417" height="8.504" x="0" y="412.224" class="st4"/><text x="2" y="418.88" class="st5">3</text></g></g></g><g id="shape100-165" transform="translate(9.92126,-113.386)"><title>Sheet.100</title><desc>Procedure 3</desc><rect width="93.543" height="17.008" x="0" y="403.72" class="st4"/><text x="2" y="414.92" class="st6">Procedure 3</text></g></g><g id="group116-168" transform="translate(313.011,-8.50394)"><title>Sheet.116</title><g id="shape102-169"><title>Sheet.102</title><rect width="113.386" height="141.732" x="0" y="278.995" class="st2"/></g><g id="shape103-171" transform="translate(14.1732,-21.2598)"><title>Sheet.103</title><rect width="85.039" height="70.866" x="0" y="349.861" class="st10"/></g><g id="shape104-173" transform="translate(14.1732,-104.882)"><title>Sheet.104</title><path d="M0 420.73 L85.04 420.73" class="st7"/></g><g id="group105-176" transform="translate(21.9685,-38.2677)"><title>Sheet.105</title><g id="group106-177" transform="translate(0,-28.3465)"><title>Sheet.106</title><g id="shape107-178" transform="translate(10.5939,-4.25197)"><title>Sheet.107</title><path d="M0 420.73 L58.85 420.73" class="st3"/></g><g id="shape108-181"><title>Sheet.108</title><desc>1</desc><rect width="9.417" height="8.504" x="0" y="412.224" class="st4"/><text x="2" y="418.88" class="st5">1</text></g></g><g id="group109-184" transform="translate(0,-14.1732)"><title>Sheet.109</title><g id="shape110-185" transform="translate(10.5939,-4.25197)"><title>Sheet.110</title><path d="M0 420.73 L58.85 420.73" class="st3"/></g><g id="shape111-188"><title>Sheet.111</title><desc>2</desc><rect width="9.417" height="8.504" x="0" y="412.224" class="st4"/><text x="2" y="418.88" class="st5">2</text></g></g><g id="group112-191"><title>Sheet.112</title><g id="shape113-192" transform="translate(10.5939,-4.25197)"><title>Sheet.113</title><path d="M0 420.73 L58.85 420.73" class="st3"/></g><g id="shape114-195"><title>Sheet.114</title><desc>3</desc><rect width="9.417" height="8.504" x="0" y="412.224" class="st4"/><text x="2" y="418.88" class="st5">3</text></g></g></g><g id="shape115-198" transform="translate(9.92126,-113.386)"><title>Sheet.115</title><desc>Procedure 4</desc><rect width="93.543" height="17.008" x="0" y="403.72" class="st4"/><text x="2" y="414.92" class="st6">Procedure 4</text></g></g></g></svg>