<svg xmlns="http://www.w3.org/2000/svg" xmlns:xlink="http://www.w3.org/1999/xlink" width="424.262" height="248.829" class="st6" color-interpolation-filters="sRGB" viewBox="0 0 318.197 186.622" xml:space="preserve"><style type="text/css">.st1{fill:#e8eef7;stroke:#000;stroke-linecap:round;stroke-linejoin:round;stroke-width:.24}.st2{fill:#000;font-family:Arial;font-size:.833336em}.st3{marker-end:url(#mrkr13-18);stroke-linecap:round;stroke-linejoin:round;stroke-width:.72}.st3,.st4,.st5{stroke:#000}.st4{fill:#000;fill-opacity:1;stroke-opacity:1;stroke-width:.22222222222222}.st5{fill:#fff;stroke-linecap:round;stroke-linejoin:round;stroke-width:.24}.st6{fill:none;fill-rule:evenodd;font-size:12;overflow:visible;stroke-linecap:square;stroke-miterlimit:3}</style><defs id="Markers"><g id="lend13"><path d="M 3 1 L -0 0 L 3 -1 L 3 1" style="stroke:none"/></g><marker id="mrkr13-18" class="st4" markerUnits="strokeWidth" orient="auto" refX="-13.5"><use transform="scale(-4.5,-4.5)" xlink:href="#lend13"/></marker></defs><g><title>Page-1</title><g id="shape31-1" transform="translate(71.1061,-166.539)"><title>Sheet.31</title><desc>topic</desc><rect width="56.693" height="19.843" x="0" y="166.779" class="st1"/><text x="17.78" y="179.7" class="st2">topic</text></g><g id="shape32-4" transform="translate(71.1061,-121.185)"><title>Sheet.32</title><desc>task</desc><rect width="56.693" height="19.843" x="0" y="166.779" class="st1"/><text x="19.18" y="179.7" class="st2">task</text></g><g id="shape33-7" transform="translate(141.972,-121.185)"><title>Sheet.33</title><desc>reference</desc><rect width="56.693" height="19.843" x="0" y="166.779" class="st1"/><text x="7.22" y="179.7" class="st2">reference</text></g><g id="shape34-10" transform="translate(0.24,-121.185)"><title>Sheet.34</title><desc>concept</desc><rect width="56.693" height="19.843" x="0" y="166.779" class="st1"/><text x="10.83" y="179.7" class="st2">concept</text></g><g id="shape36-13" transform="translate(162.665,195.673) rotate(160.201)"><title>Sheet.36</title><path d="M0 186.62 L65.6 186.62" class="st3"/></g><g id="shape37-19" transform="translate(286.074,20.555) rotate(90)"><title>Sheet.37</title><path d="M0 186.62 L15.32 186.62" class="st3"/></g><g id="shape38-24" transform="translate(162.665,-155.508) rotate(19.7989)"><title>Sheet.38</title><path d="M0 186.62 L65.6 186.62" class="st3"/></g><g id="shape35-29" transform="translate(213.075,-120.712)"><title>Sheet.35</title><desc>tutorial</desc><rect width="56.693" height="19.843" x="0" y="166.779" class="st5"/><text x="13.34" y="179.7" class="st2">tutorial</text></g><g id="shape39-32" transform="translate(132.703,-163.596) rotate(10.1895)"><title>Sheet.39</title><path d="M0 186.62 L137.16 186.62" class="st3"/></g><g id="shape40-37" transform="translate(28.8227,-75.3581)"><title>Sheet.40</title><desc>minitask</desc><rect width="56.693" height="19.843" x="0" y="166.779" class="st5"/><text x="10.01" y="179.7" class="st2">minitask</text></g><g id="shape41-40" transform="translate(197.003,224.678) rotate(148.57)"><title>Sheet.41</title><path d="M0 186.62 L40.11 186.62" class="st3"/></g><g id="shape42-45" transform="translate(57.1691,-41.3424)"><title>Sheet.42</title><desc>manpages</desc><rect width="56.693" height="19.843" x="0" y="166.779" class="st5"/><text x="5" y="179.7" class="st2">manpages</text></g><g id="shape43-48" transform="translate(125.201,-41.3424)"><title>Sheet.43</title><desc>ui_help</desc><rect width="56.693" height="19.843" x="0" y="166.779" class="st5"/><text x="12.22" y="179.7" class="st2">ui_help</text></g><g id="shape44-51" transform="translate(193.232,-41.3424)"><title>Sheet.44</title><desc>api</desc><rect width="56.693" height="19.843" x="0" y="166.779" class="st5"/><text x="21.67" y="179.7" class="st2">api</text></g><g id="shape45-54" transform="translate(261.264,-41.3424)"><title>Sheet.45</title><desc>messages</desc><rect width="56.693" height="19.843" x="0" y="166.779" class="st5"/><text x="5.56" y="179.7" class="st2">messages</text></g><g id="shape46-57" transform="translate(278.143,217.924) rotate(144.795)"><title>Sheet.46</title><path d="M0 186.62 L94.36 186.62" class="st3"/></g><g id="shape47-62" transform="translate(349.782,115.016) rotate(105.215)"><title>Sheet.47</title><path d="M0 186.62 L51.84 186.62" class="st3"/></g><g id="shape48-67" transform="translate(310.261,-56.7234) rotate(48.8666)"><title>Sheet.48</title><path d="M0 186.62 L69.14 186.62" class="st3"/></g><g id="shape49-72" transform="translate(253.07,-101.483) rotate(26.5651)"><title>Sheet.49</title><path d="M0 186.62 L124.44 186.62" class="st3"/></g><g id="shape50-77" transform="translate(159.216,-0.24)"><title>Sheet.50</title><desc>java_api</desc><rect width="56.693" height="19.843" x="0" y="166.779" class="st5"/><text x="9.72" y="179.7" class="st2">java_api</text></g><g id="shape51-80" transform="translate(232.917,-0.24)"><title>Sheet.51</title><desc>cpp_api</desc><rect width="56.693" height="19.843" x="0" y="166.779" class="st5"/><text x="10.83" y="179.7" class="st2">cpp_api</text></g><g id="shape52-83" transform="translate(320.488,303.534) rotate(147.995)"><title>Sheet.52</title><path d="M0 186.62 L30.39 186.62" class="st3"/></g><g id="shape53-88" transform="translate(308.424,-19.6547) rotate(27.8973)"><title>Sheet.53</title><path d="M0 186.62 L35.72 186.62" class="st3"/></g></g></svg>