<svg xmlns="http://www.w3.org/2000/svg" xmlns:xlink="http://www.w3.org/1999/xlink" width="733.001" height="231.697" class="st35" color-interpolation-filters="sRGB" viewBox="0 0 549.751 173.773" xml:space="preserve"><style type="text/css">.st1,.st2{stroke:none}.st1{fill:#fff;stroke-linecap:butt;stroke-width:.191921}.st2{fill:url(#grad33-8);stroke-width:.172222}.st2,.st3,.st4,.st5{stroke-linecap:butt}.st3{fill:url(#grad32-20);stroke:#000;stroke-opacity:.36;stroke-width:.191921}.st4,.st5{fill:#000;stroke-width:.6}.st4{fill-opacity:.094;stroke:none}.st5{fill-opacity:.43}.st5,.st6,.st7{stroke:none}.st6{fill:url(#grad32-30);stroke-linecap:butt;stroke-width:.178013}.st7{fill:url(#grad32-20);stroke-width:.169838}.st7,.st8,.st9{stroke-linecap:butt}.st8{fill:#b9b9b9;fill-opacity:.27;stroke:#000;stroke-opacity:.16;stroke-width:.6}.st9{fill:none;stroke:none;stroke-width:.75}.st10{fill:#000;font-family:Arial;font-size:.75em}.st11{fill:url(#grad32-30);stroke-linecap:butt;stroke-width:1}.st11,.st12{stroke:none}.st12,.st13{stroke-linecap:butt}.st12{fill:url(#grad32-20);stroke-width:.954075}.st13{fill:red;fill-opacity:.75;stroke:#000;stroke-width:.6}.st14{fill:none}.st15,.st16{stroke:#000;stroke-linecap:butt;stroke-width:.6}.st16{stroke-linecap:round;stroke-linejoin:round;stroke-width:.24}.st17,.st18{fill:none;stroke:#000;stroke-linecap:butt;stroke-width:.19192}.st18{stroke-width:.191921}.st19{fill:url(#grad31-158);stroke:#3f4561;stroke-linecap:round;stroke-linejoin:round;stroke-width:1.15026}.st20,.st21{stroke:#fff;stroke-linecap:butt}.st20{fill:url(#grad31-164);stroke-opacity:.65;stroke-width:1.15026}.st21{fill:url(#grad31-170);stroke-opacity:.34}.st21,.st22,.st23,.st24{stroke-width:1.15026}.st22{fill:url(#grad28-177);stroke:#3f4561;stroke-linecap:round;stroke-linejoin:round}.st23,.st24{fill:none;stroke:#fff;stroke-linecap:butt;stroke-opacity:.65}.st24{stroke-opacity:.34}.st25{fill:url(#grad31-158);stroke:#3f4561;stroke-linecap:round;stroke-linejoin:round;stroke-width:.713356}.st26{fill:url(#grad31-164);stroke:#fff;stroke-linecap:butt;stroke-opacity:.65;stroke-width:.713355}.st27,.st28{stroke-width:.713356}.st27{fill:url(#grad31-170);stroke:#fff;stroke-linecap:butt;stroke-opacity:.34}.st28{fill:url(#grad28-177);stroke:#3f4561;stroke-linecap:round;stroke-linejoin:round}.st29,.st30{fill:none;stroke:#fff;stroke-linecap:butt;stroke-opacity:.65;stroke-width:.713355}.st30{stroke-opacity:.34;stroke-width:.713356}.st31{marker-end:url(#mrkr13-277);stroke:#000;stroke-linecap:round;stroke-linejoin:round;stroke-width:1.2}.st32{fill:#000;fill-opacity:1;stroke:#000;stroke-opacity:1;stroke-width:.32258064516129}.st33,.st34{stroke:#000;stroke-linecap:round;stroke-linejoin:round;stroke-width:1.2}.st34{marker-start:url(#mrkr13-289)}.st35{fill:none;fill-rule:evenodd;font-size:12;overflow:visible;stroke-linecap:square;stroke-miterlimit:3}</style><defs id="Patterns_And_Gradients"><pattern id="grad33-8" width="1" height="1" x="0" y="0" patternContentUnits="objectBoundingBox"><path d="M 0 1 L 0 0 L 1 0 z" style="fill:url(#grad30-9)"/><path d="M 0 1 L 1 1 L 1 0 z" style="fill:url(#grad25-10)"/></pattern><linearGradient id="grad30-9" x1="0" x2="0" y1="1" y2="0"><stop offset="0" style="stop-color:#000;stop-opacity:.067"/><stop offset="1" style="stop-color:#000;stop-opacity:0"/></linearGradient><linearGradient id="grad25-10" x1="0" x2="1" y1="0" y2="0"><stop offset="0" style="stop-color:#000;stop-opacity:.067"/><stop offset="1" style="stop-color:#000;stop-opacity:0"/></linearGradient><pattern id="grad32-20" width="1" height="1" x="0" y="0" patternContentUnits="objectBoundingBox"><path d="M 0 1 L 0 0 L 1 0 z" style="fill:url(#grad27-21)"/><path d="M 0 1 L 1 1 L 1 0 z" style="fill:url(#grad28-22)"/></pattern><linearGradient id="grad27-21" x1="1" x2="0" y1="0" y2="0"><stop offset="0" style="stop-color:#dadada;stop-opacity:1"/><stop offset="1" style="stop-color:#f0f0f0;stop-opacity:1"/></linearGradient><linearGradient id="grad28-22" x1="0" x2="0" y1="0" y2="1"><stop offset="0" style="stop-color:#dadada;stop-opacity:1"/><stop offset="1" style="stop-color:#f0f0f0;stop-opacity:1"/></linearGradient><pattern id="grad32-30" width="1" height="1" x="0" y="0" patternContentUnits="objectBoundingBox"><path d="M 0 1 L 0 0 L 1 0 z" style="fill:url(#grad27-31)"/><path d="M 0 1 L 1 1 L 1 0 z" style="fill:url(#grad28-32)"/></pattern><linearGradient id="grad27-31" x1="1" x2="0" y1="0" y2="0"><stop offset="0" style="stop-color:#fff;stop-opacity:1"/><stop offset="1" style="stop-color:#fff;stop-opacity:0"/></linearGradient><linearGradient id="grad28-32" x1="0" x2="0" y1="0" y2="1"><stop offset="0" style="stop-color:#fff;stop-opacity:1"/><stop offset="1" style="stop-color:#fff;stop-opacity:0"/></linearGradient><pattern id="grad31-158" width="1" height="1" x="0" y="0" patternContentUnits="objectBoundingBox"><path d="M 0 0 L 0 1 L 1 1 z" style="fill:url(#grad28-159)"/><path d="M 0 0 L 1 0 L 1 1 z" style="fill:url(#grad25-160)"/></pattern><linearGradient id="grad28-159" x1="0" x2="0" y1="0" y2="1"><stop offset="0" style="stop-color:#c9c9c9;stop-opacity:1"/><stop offset="1" style="stop-color:#c9c9c9;stop-opacity:1"/></linearGradient><linearGradient id="grad25-160" x1="0" x2="1" y1="0" y2="0"><stop offset="0" style="stop-color:#c9c9c9;stop-opacity:1"/><stop offset="1" style="stop-color:#c9c9c9;stop-opacity:1"/></linearGradient><pattern id="grad31-164" width="1" height="1" x="0" y="0" patternContentUnits="objectBoundingBox"><path d="M 0 0 L 0 1 L 1 1 z" style="fill:url(#grad28-165)"/><path d="M 0 0 L 1 0 L 1 1 z" style="fill:url(#grad25-166)"/></pattern><linearGradient id="grad28-165" x1="0" x2="0" y1="0" y2="1"><stop offset="0" style="stop-color:#c9c9c9;stop-opacity:.65"/><stop offset="1" style="stop-color:#c9c9c9;stop-opacity:.65"/></linearGradient><linearGradient id="grad25-166" x1="0" x2="1" y1="0" y2="0"><stop offset="0" style="stop-color:#c9c9c9;stop-opacity:.65"/><stop offset="1" style="stop-color:#c9c9c9;stop-opacity:.65"/></linearGradient><pattern id="grad31-170" width="1" height="1" x="0" y="0" patternContentUnits="objectBoundingBox"><path d="M 0 0 L 0 1 L 1 1 z" style="fill:url(#grad28-171)"/><path d="M 0 0 L 1 0 L 1 1 z" style="fill:url(#grad25-172)"/></pattern><linearGradient id="grad28-171" x1="0" x2="0" y1="0" y2="1"><stop offset="0" style="stop-color:#c9c9c9;stop-opacity:.34"/><stop offset="1" style="stop-color:#c9c9c9;stop-opacity:.34"/></linearGradient><linearGradient id="grad25-172" x1="0" x2="1" y1="0" y2="0"><stop offset="0" style="stop-color:#c9c9c9;stop-opacity:.34"/><stop offset="1" style="stop-color:#c9c9c9;stop-opacity:.34"/></linearGradient><linearGradient id="grad28-177" x1="0" x2="0" y1="0" y2="1"><stop offset="0" style="stop-color:#184375;stop-opacity:1"/><stop offset="1" style="stop-color:#c8bddc;stop-opacity:1"/></linearGradient></defs><defs id="Markers"><g id="lend13"><path d="M 3 1 L -0 0 L 3 -1 L 3 1" style="stroke:none"/></g><marker id="mrkr13-277" class="st32" markerUnits="strokeWidth" orient="auto" refX="-9.3"><use transform="scale(-3.1,-3.1)" xlink:href="#lend13"/></marker><marker id="mrkr13-289" class="st32" markerUnits="strokeWidth" orient="auto" refX="9"><use transform="scale(3.1)" xlink:href="#lend13"/></marker></defs><g><title>Page-1</title><g id="group1-1" transform="translate(476.156,-51.4225)"><title>g1994</title><g id="shape2-2" transform="translate(1.39718,-1.49991)"><title>path1995</title><path d="M0 107.64 L0 124.17 L0 140.71 L0 157.24 L0 173.77 L15.09 173.77 L30.17 173.77 L45.26 173.77 L60.35 173.77 L60.35 157.24 L60.35 140.71 L60.35 124.17 L45.26 107.64 L30.17 107.64 L15.09 107.64 L0 107.64 Z" class="st1"/></g><g id="group3-4"><title>g1996</title><g id="shape4-5" transform="translate(0.887591,-0.868677)"><title>path1997</title><path d="M0 108.29 L0 124.66 L0 141.03 L0 157.4 L0 173.77 L14.89 173.77 L29.77 173.77 L44.66 173.77 L59.55 173.77 L59.55 157.4 L59.55 141.03 L59.55 124.66 L44.66 108.29 L29.77 108.29 L14.89 108.29 L0 108.29 Z" class="st2"/></g><g id="shape5-11" transform="translate(0.44485,-0.435199)"><title>path1998</title><path d="M0 107.63 C0 129.68 0 151.73 0 173.77 C20.15 173.77 40.29 173.77 60.44 173.77 C60.44 157.2 60.44 140.63 60.44 124.06 C55.39 118.51 50.35 112.96 45.3 107.42 C30.2 107.42 15.1 107.42 0 107.42 C0 107.46 0 107.61 0 107.63 Z" class="st2"/></g><g id="shape6-14"><title>path1999</title><path d="M0 106.76 C0 129.1 0 151.44 0 173.77 C20.44 173.77 40.88 173.77 61.33 173.77 C61.33 157 61.33 140.23 61.33 123.45 C56.2 117.82 51.07 112.18 45.94 106.55 C30.63 106.55 15.31 106.55 0 106.55 C0 106.59 0 106.74 0 106.76 Z" class="st2"/></g></g><g id="shape7-17" transform="translate(1.42196,-1.41794)"><title>path2000</title><path d="M0 107.64 L0 124.17 L0 140.71 L0 157.24 L0 173.77 L15.09 173.77 L30.17 173.77 L45.26 173.77 L60.35 173.77 L60.35 157.24 L60.35 140.71 L60.35 124.17 L45.26 107.64 L30.17 107.64 L15.09 107.64 L0 107.64 Z" class="st3"/></g><g id="shape8-23" transform="translate(5.8969,-53.5295)"><title>rect2001</title><rect width="33.47" height="9.429" x="0" y="164.343" class="st4"/></g><g id="shape9-25" transform="translate(5.57743,-47.3402)"><title>rect2002</title><rect width="51.877" height="1.099" x="0" y="172.673" class="st5"/></g><g id="shape10-27" transform="translate(1.59289,-1.83988)"><title>path2003</title><path d="M0.27 113.16 L0 173.77 L59.25 173.77 L59.29 158.79 C57.96 159.3 44.58 140.34 27.72 141.16 C10.86 141.97 15.22 115.61 0.27 113.16 Z" class="st6"/></g><g id="shape11-33" transform="translate(5.57743,-42.1876)"><title>rect2004</title><rect width="51.877" height="1.099" x="0" y="172.673" class="st5"/></g><g id="shape12-35" transform="translate(5.57743,-37.035)"><title>rect2005</title><rect width="49.949" height="1.099" x="0" y="172.673" class="st5"/></g><g id="shape13-37" transform="translate(5.57743,-31.8824)"><title>rect2006</title><rect width="28.697" height="1.099" x="0" y="172.673" class="st5"/></g><g id="shape14-39" transform="translate(5.57743,-26.7298)"><title>rect2007</title><rect width="28.394" height="1.099" x="0" y="172.673" class="st5"/></g><g id="shape15-41" transform="translate(46.6843,-51.0159)"><title>path2008</title><path d="M15.09 173.77 C10.54 172.43 4.64 172.62 0.19 173.38 C0.96 168.45 1.06 162.27 0 157.24 L15.09 173.77 Z" class="st7"/></g><g id="shape16-44" transform="translate(37.1452,-14.0956)"><title>rect2009</title><rect width="20.125" height="19.32" x="0" y="154.453" class="st8"/></g><g id="shape17-46" transform="translate(5.60457,-21.5366)"><title>rect2010</title><rect width="28.394" height="1.099" x="0" y="172.673" class="st5"/></g><g id="shape18-48" transform="translate(5.62701,-16.384)"><title>rect2011</title><rect width="28.697" height="1.099" x="0" y="172.673" class="st5"/></g><g id="shape19-50" transform="translate(5.62701,-11.2314)"><title>rect2012</title><rect width="37.391" height="1.099" x="0" y="172.673" class="st5"/></g><g id="shape20-52" transform="translate(5.62701,-6.07885)"><title>rect2013</title><rect width="51.877" height="1.099" x="0" y="172.673" class="st5"/></g></g><g id="shape21-54" transform="translate(14.9232,-94.0798)"><title>text998</title><desc>DITA Content</desc><rect width="62.362" height="10.8" x="0" y="162.973" class="st9"/><text x="3.92" y="171.07" class="st10">DITA Content</text></g><g id="group22-57" transform="translate(13.9612,-12.276)"><title>g1364</title><g id="shape23-58" transform="translate(1.39718,-1.49991)"><title>path1365</title><path d="M0 107.64 L0 124.17 L0 140.71 L0 157.24 L0 173.77 L15.09 173.77 L30.17 173.77 L45.26 173.77 L60.35 173.77 L60.35 157.24 L60.35 140.71 L60.35 124.17 L45.26 107.64 L30.17 107.64 L15.09 107.64 L0 107.64 Z" class="st1"/></g><g id="group24-60"><title>g1366</title><g id="shape25-61" transform="translate(0.887591,-0.868677)"><title>path1367</title><path d="M0 108.29 L0 124.66 L0 141.03 L0 157.4 L0 173.77 L14.89 173.77 L29.77 173.77 L44.66 173.77 L59.55 173.77 L59.55 157.4 L59.55 141.03 L59.55 124.66 L44.66 108.29 L29.77 108.29 L14.89 108.29 L0 108.29 Z" class="st2"/></g><g id="shape26-64" transform="translate(0.44485,-0.435199)"><title>path1368</title><path d="M0 107.63 C0 129.68 0 151.73 0 173.77 C20.15 173.77 40.29 173.77 60.44 173.77 C60.44 157.2 60.44 140.63 60.44 124.06 C55.39 118.51 50.35 112.96 45.3 107.42 C30.2 107.42 15.1 107.42 0 107.42 C0 107.46 0 107.61 0 107.63 Z" class="st2"/></g><g id="shape27-67"><title>path1369</title><path d="M0 106.76 C0 129.1 0 151.44 0 173.77 C20.44 173.77 40.88 173.77 61.33 173.77 C61.33 157 61.33 140.23 61.33 123.45 C56.2 117.82 51.07 112.18 45.94 106.55 C30.63 106.55 15.31 106.55 0 106.55 C0 106.59 0 106.74 0 106.76 Z" class="st2"/></g></g><g id="shape28-70" transform="translate(1.42196,-1.41794)"><title>path1370</title><path d="M0 107.64 L0 124.17 L0 140.71 L0 157.24 L0 173.77 L15.09 173.77 L30.17 173.77 L45.26 173.77 L60.35 173.77 L60.35 157.24 L60.35 140.71 L60.35 124.17 L45.26 107.64 L30.17 107.64 L15.09 107.64 L0 107.64 Z" class="st3"/></g><g id="shape29-73" transform="translate(1.59289,-1.83988)"><title>path1371</title><path d="M0.27 113.16 L0 173.77 L59.25 173.77 L59.29 158.79 C57.96 159.3 44.58 140.34 27.72 141.16 C10.86 141.97 15.22 115.61 0.27 113.16 Z" class="st6"/></g><g id="shape30-76" transform="translate(46.6843,-51.0159)"><title>path1372</title><path d="M15.09 173.77 C10.54 172.43 4.64 172.62 0.19 173.38 C0.96 168.45 1.06 162.27 0 157.24 L15.09 173.77 Z" class="st7"/></g></g><g id="shape31-79" transform="translate(0.75,-0.75)"><title>text1373</title><desc>Processor XSLT Code</desc><rect width="96.378" height="10.8" x="0" y="162.973" class="st9"/><text x="3.42" y="171.07" class="st10">Processor XSLT Code</text></g><g id="shape32-82" transform="translate(107.804,-37.3869)"><title>text6629</title><desc>XSLT Processor</desc><rect width="126.05" height="10.8" x="0" y="162.973" class="st9"/><text x="30.26" y="171.07" class="st10">XSLT Processor</text></g><g id="shape33-85" transform="translate(472.972,-37.3869)"><title>text2016</title><desc>Result Document</desc><rect width="76.029" height="10.8" x="0" y="162.973" class="st9"/><text x="3.5" y="171.07" class="st10">Result Document</text></g><g id="group46-88" transform="translate(15.0286,-105.27)"><title>Sheet.46</title><g id="shape47-89" transform="translate(6.93606,-5.0287)"><title>path1500</title><path d="M0.27 113.16 L0 173.77 L59.25 173.77 L59.29 158.79 C57.96 159.3 44.58 140.34 27.72 141.16 C10.86 141.97 15.22 115.61 0.27 113.16 Z" class="st11"/></g><g id="group48-92" transform="translate(0.55874,5.68434E-014)"><title>g1552</title><g id="shape49-93" transform="translate(0.887593,-0.868676)"><title>path1505</title><path d="M0 108.29 L0 124.66 L0 141.03 L0 157.4 L0 173.77 L14.89 173.77 L29.77 173.77 L44.66 173.77 L59.55 173.77 L59.55 157.4 L59.55 141.03 L59.55 124.66 L44.66 108.29 L29.77 108.29 L14.89 108.29 L0 108.29 Z" class="st2"/></g><g id="shape50-96" transform="translate(0.444851,-0.435199)"><title>path1538</title><path d="M0 107.63 C0 129.68 0 151.73 0 173.77 C20.15 173.77 40.29 173.77 60.44 173.77 C60.44 157.2 60.44 140.63 60.44 124.06 C55.39 118.51 50.35 112.96 45.3 107.42 C30.2 107.42 15.1 107.42 0 107.42 C0 107.46 0 107.61 0 107.63 Z" class="st2"/></g><g id="shape51-99"><title>path1543</title><path d="M0 106.76 C0 129.1 0 151.44 0 173.77 C20.44 173.77 40.88 173.77 61.33 173.77 C61.33 157 61.33 140.23 61.33 123.45 C56.2 117.82 51.07 112.18 45.94 106.55 C30.63 106.55 15.31 106.55 0 106.55 C0 106.59 0 106.74 0 106.76 Z" class="st2"/></g></g><g id="shape52-102" transform="translate(0,-1.41778)"><title>rect900</title><path d="M0 107.64 L0 124.17 L0 140.71 L0 157.24 L0 173.77 L15.09 173.77 L30.17 173.77 L45.26 173.77 L60.35 173.77 L60.35 157.24 L60.35 140.71 L60.35 124.17 L45.26 107.64 L30.17 107.64 L15.09 107.64 L0 107.64 Z" class="st3"/></g><g id="shape53-105" transform="translate(46.0843,-51.0157)"><title>path906</title><path d="M15.09 173.77 C10.54 172.43 4.64 172.62 0.19 173.38 C0.96 168.45 1.06 162.27 0 157.24 L15.09 173.77 Z" class="st12"/></g><g id="group54-108" transform="translate(8.69909,-6.93685)"><title>g1976</title><g id="shape55-109" transform="translate(8.3121,-14.3246)"><title>path1058</title><path d="M9.8 169.04 A4.89795 4.73468 -0 0 0 -0 169.04 A4.89795 4.73468 -0 0 0 9.8 169.04 Z" class="st13"/></g><g id="group56-111"><title>g1960</title><g id="shape57-112" transform="translate(26.3801,-30.1698)"><title>path1055</title><path d="M9.8 169.04 A4.89795 4.73468 -0 0 0 -0 169.04 A4.89795 4.73468 -0 0 0 9.8 169.04 Z" class="st13"/></g><g id="shape58-114" transform="translate(1.80855E-013,-0.163275)"><title>path1065</title><path d="M9.8 169.04 A4.89795 4.73468 -0 0 0 -0 169.04 A4.89795 4.73468 -0 0 0 9.8 169.04 Z" class="st13"/></g><g id="group59-116" transform="translate(6.5435,2.84217E-014)"><title>g1947</title><g id="group60-117"><title>g1936</title><g id="shape61-118" transform="translate(1.7686,-30.3331)"><title>path1053</title><path d="M9.8 169.04 A4.89795 4.73468 -0 0 0 -0 169.04 A4.89795 4.73468 -0 0 0 9.8 169.04 Z" class="st13"/></g><g id="group62-120"><title>g1927</title><g id="shape63-121" transform="translate(9.0808,-43.5352)"><title>path1052</title><path d="M11.65 167.95 A5.82312 5.82312 -180 1 0 -0 167.95 A5.82312 5.82312 -180 0 0 11.65 167.95 Z" class="st13"/></g><g id="shape64-123" transform="translate(19.8366,-14.1613)"><title>path1059</title><path d="M9.8 169.04 A4.89795 4.73468 -0 0 0 -0 169.04 A4.89795 4.73468 -0 0 0 9.8 169.04 Z" class="st13"/></g><g id="shape65-125" transform="translate(8.61995,-39.9118)"><title>path1061</title><path d="M3.39 169.46 C0 173.77 0.31 173.77 0.31 173.77 L3.39 169.46 Z" class="st14"/><path d="M3.39 169.46 C0 173.77 0.31 173.77 0.31 173.77" class="st15"/></g><g id="shape66-128" transform="translate(18.1635,-39.2961)"><title>path1062</title><path d="M0 168.54 C4 173.77 4 173.77 4 173.77 L0 168.54 Z" class="st14"/><path d="M0 168.54 C4 173.77 4 173.77 4 173.77" class="st15"/></g><g id="shape67-131" transform="translate(6.46496,-24.2112)"><title>path1063</title><path d="M0 167.62 C0 173.77 0 173.77 0 173.77 L0 167.62 Z" class="st14"/><path d="M0 167.62 C0 173.77 0 173.77 0 173.77" class="st15"/></g><g id="shape68-134" transform="translate(24.9363,-23.9033)"><title>path1064</title><path d="M0 167.92 C0 173.77 0 173.77 0 173.77 L0 167.92 Z" class="st14"/><path d="M0 167.92 C0 173.77 0 173.77 0 173.77" class="st15"/></g><g id="shape69-137" transform="translate(11.5245,8.52651E-014)"><title>path1066</title><path d="M9.8 169.04 A4.89795 4.73468 -0 0 0 -0 169.04 A4.89795 4.73468 -0 0 0 9.8 169.04 Z" class="st13"/></g><g id="shape70-139" transform="translate(0,-9.742)"><title>path1067</title><path d="M4 168.54 L0 173.77 L4 168.54 Z" class="st14"/><path d="M4 168.54 L0 173.77" class="st15"/></g></g></g><g id="shape71-142" transform="translate(9.54351,-9.12629)"><title>path1068</title><path d="M0 167.92 C4.31 173.77 4.31 173.77 4.31 173.77 L0 167.92 Z" class="st14"/><path d="M0 167.92 C4.31 173.77 4.31 173.77 4.31 173.77" class="st15"/></g></g></g></g></g><g id="shape72-145" transform="translate(39.0704,-112.162)"><title>Dynamic connector</title><path d="M7.09 180.66 L7.09 181.05" class="st16"/></g><g id="group73-148" transform="translate(135.009,-51.5957)"><title>Sheet.73</title><g id="shape74-149" transform="translate(2.59107,-6.71193)"><title>path3923</title><path d="M66.13 113.42 L49.6 113.42 L33.07 113.42 L16.53 113.42 L0 113.42 L0 128.51 L0 143.6 L0 158.69 L0 173.77 L16.53 173.77 L33.07 173.77 L49.6 173.77 L66.13 158.69 L66.13 143.6 L66.13 128.51 L66.13 113.42 Z" class="st17"/></g><g id="shape75-151" transform="translate(2.01269,-6.49239)"><title>path3918</title><path d="M67.24 113.74 L50.71 113.43 L34.18 113.13 L17.65 112.82 L1.12 112.51 L0.84 127.6 L0.56 142.68 L0.28 157.77 L0 172.85 L16.53 173.16 L33.06 173.47 L49.59 173.77 L66.4 158.99 L66.68 143.91 L66.96 128.82 L67.24 113.74 Z" class="st18"/></g><g id="group76-153" transform="translate(23.3836,5.68434E-014)"><title>g3924</title><g id="group77-154" transform="translate(1.13619,-2.27374E-013)"><title>g3925</title><g id="shape78-155"><title>path3926</title><path d="M24.48 122.25 C23.94 122.29 23.41 122.37 22.87 122.43 L22.84 122.43 L21.56 129.4 C19.47 129.88 17.5 130.68 15.74 131.77 L9.99 127.65 C8.44 128.85 7.02 130.26 5.78 131.77 L9.77 137.58 C8.56 139.42 7.65 141.53 7.14 143.74 C7.14 143.75 7.14 143.78 7.14 143.78 L0.18 144.87 C0.06 145.91 -0 146.98 0 148.05 C0 148.92 0.02 149.79 0.11 150.64 L7.06 151.88 C7.56 154.29 8.5 156.54 9.81 158.52 L5.67 164.18 C6.86 165.64 8.22 166.98 9.7 168.15 L15.55 164.14 C17.6 165.44 19.88 166.35 22.36 166.8 L23.46 173.7 C24.24 173.77 25.04 173.77 25.84 173.77 C26.97 173.77 28.04 173.73 29.13 173.59 L30.45 166.55 C32.8 165.96 35.01 164.95 36.93 163.59 L42.56 167.68 C44.02 166.44 45.36 165.01 46.52 163.48 L42.42 157.57 C43.53 155.66 44.3 153.55 44.69 151.3 L51.6 150.2 C51.66 149.48 51.68 148.78 51.68 148.05 C51.68 146.77 51.53 145.52 51.35 144.29 L44.32 143.01 C43.77 140.99 42.87 139.09 41.72 137.39 L45.86 131.74 C44.57 130.17 43.11 128.73 41.5 127.5 L35.54 131.59 C33.82 130.58 31.98 129.8 29.97 129.37 L28.88 122.43 C27.88 122.32 26.87 122.25 25.84 122.25 C25.56 122.25 25.27 122.24 25 122.25 C24.86 122.25 24.73 122.24 24.59 122.25 C24.56 122.25 24.52 122.25 24.48 122.25 Z M25.44 139.98 C25.57 139.98 25.7 139.98 25.84 139.98 C30.17 139.98 33.71 143.51 33.71 147.83 C33.71 152.15 30.17 155.64 25.84 155.64 C21.51 155.64 18.01 152.15 18.01 147.83 C18.01 143.64 21.29 140.19 25.44 139.98 Z" class="st19"/></g><g id="shape79-161" transform="translate(16.8018,-16.9463)"><title>path3927</title><path d="M18.08 164.76 A9.0407 9.01388 -180 0 0 0 164.76 A9.0407 9.01388 -180 0 0 18.08 164.76 Z" class="st20"/></g><g id="shape80-167" transform="translate(1.15628,-1.12673)"><title>path3928</title><path d="M22.52 124.76 L21.49 131.5 C19.53 131.95 15.93 133.31 14.28 134.33 L8.8 130.26 C7.35 131.39 7.25 131.46 6.08 132.89 L10.04 138.74 C8.9 140.47 7.54 143.55 7.05 145.75 C7.05 145.75 0.12 146.92 0.12 146.92 C0 147.89 0.06 149.96 0.14 150.76 L6.76 151.95 C7.22 154.21 8.96 157.84 10.19 159.7 L6 165.22 C7.11 166.59 7.33 166.72 8.71 167.82 L14.31 163.73 C16.23 164.95 20.04 166.44 22.36 166.86 L23.28 173.52 C24.01 173.59 26.03 173.77 27.05 173.64 L28.08 166.71 C30.28 166.16 34.09 164.6 35.89 163.33 L41.48 167.35 C42.85 166.19 42.86 166.02 43.95 164.58 L39.8 158.71 C40.84 156.92 42.19 153.41 42.55 151.3 L49.34 150.18 C49.4 149.5 49.4 147.62 49.23 146.47 L42.31 145.28 C41.8 143.38 40.03 139.95 38.95 138.36 L43.35 132.84 C42.15 131.38 41.7 131.18 40.19 130.03 L34.4 134.16 C32.8 133.21 29.59 131.77 27.71 131.36 L26.69 124.76 C25.75 124.65 23.05 124.7 22.52 124.76 Z" class="st21"/></g></g><g id="group81-173" transform="translate(2.59792E-013,-1.13791)"><title>g3929</title><g id="shape82-174"><title>path3930</title><path d="M24.48 122.25 C23.94 122.29 23.41 122.37 22.87 122.43 L22.84 122.43 L21.56 129.4 C19.47 129.88 17.5 130.68 15.74 131.77 L9.99 127.65 C8.44 128.85 7.02 130.26 5.78 131.77 L9.77 137.58 C8.56 139.42 7.65 141.53 7.14 143.74 C7.14 143.75 7.14 143.78 7.14 143.78 L0.18 144.87 C0.06 145.91 -0 146.98 0 148.05 C0 148.92 0.02 149.79 0.11 150.64 L7.06 151.88 C7.56 154.29 8.5 156.54 9.81 158.52 L5.67 164.18 C6.86 165.64 8.22 166.98 9.7 168.15 L15.55 164.14 C17.6 165.44 19.88 166.35 22.36 166.8 L23.46 173.7 C24.24 173.77 25.04 173.77 25.84 173.77 C26.97 173.77 28.04 173.73 29.13 173.59 L30.45 166.55 C32.8 165.96 35.01 164.95 36.93 163.59 L42.56 167.68 C44.02 166.44 45.36 165.01 46.52 163.48 L42.42 157.57 C43.53 155.66 44.3 153.55 44.69 151.3 L51.6 150.2 C51.66 149.48 51.68 148.78 51.68 148.05 C51.68 146.77 51.53 145.52 51.35 144.29 L44.32 143.01 C43.77 140.99 42.87 139.09 41.72 137.39 L45.86 131.74 C44.57 130.17 43.11 128.73 41.5 127.5 L35.54 131.59 C33.82 130.58 31.98 129.8 29.97 129.37 L28.88 122.43 C27.88 122.32 26.87 122.25 25.84 122.25 C25.56 122.25 25.27 122.24 25 122.25 C24.86 122.25 24.73 122.24 24.59 122.25 C24.56 122.25 24.52 122.25 24.48 122.25 Z M25.44 139.98 C25.57 139.98 25.7 139.98 25.84 139.98 C30.17 139.98 33.71 143.51 33.71 147.83 C33.71 152.15 30.17 155.64 25.84 155.64 C21.51 155.64 18.01 152.15 18.01 147.83 C18.01 143.64 21.29 140.19 25.44 139.98 Z" class="st22"/></g><g id="shape83-178" transform="translate(16.8018,-16.9463)"><title>path3931</title><path d="M18.08 164.76 A9.0407 9.01388 -180 0 0 0 164.76 A9.0407 9.01388 -180 0 0 18.08 164.76 Z" class="st23"/></g><g id="shape84-180" transform="translate(1.15628,-1.12673)"><title>path3932</title><path d="M22.52 124.76 L21.49 131.5 C19.53 131.95 15.93 133.31 14.28 134.33 L8.8 130.26 C7.35 131.39 7.25 131.46 6.08 132.89 L10.04 138.74 C8.9 140.47 7.54 143.55 7.05 145.75 C7.05 145.75 0.12 146.92 0.12 146.92 C0 147.89 0.06 149.96 0.14 150.76 L6.76 151.95 C7.22 154.21 8.96 157.84 10.19 159.7 L6 165.22 C7.11 166.59 7.33 166.72 8.71 167.82 L14.31 163.73 C16.23 164.95 20.04 166.44 22.36 166.86 L23.28 173.52 C24.01 173.59 26.03 173.77 27.05 173.64 L28.08 166.71 C30.28 166.16 34.09 164.6 35.89 163.33 L41.48 167.35 C42.85 166.19 42.86 166.02 43.95 164.58 L39.8 158.71 C40.84 156.92 42.19 153.41 42.55 151.3 L49.34 150.18 C49.4 149.5 49.4 147.62 49.23 146.47 L42.31 145.28 C41.8 143.38 40.03 139.95 38.95 138.36 L43.35 132.84 C42.15 131.38 41.7 131.18 40.19 130.03 L34.4 134.16 C32.8 133.21 29.59 131.77 27.71 131.36 L26.69 124.76 C25.75 124.65 23.05 124.7 22.52 124.76 Z" class="st24"/></g></g></g><g id="group85-182" transform="translate(5.9952E-015,-33.3839)"><title>g3933</title><g id="group86-183" transform="translate(0.704625,-1.42109E-013)"><title>g3934</title><g id="shape87-184"><title>path3935</title><path d="M15.18 141.82 C14.85 141.84 14.52 141.9 14.19 141.93 L14.16 141.93 L13.37 146.26 C12.07 146.55 10.86 147.05 9.76 147.73 L6.2 145.17 C5.23 145.91 4.36 146.78 3.59 147.73 L6.06 151.32 C5.31 152.47 4.74 153.78 4.43 155.15 C4.43 155.16 4.43 155.17 4.43 155.17 L0.11 155.85 C0.03 156.49 0 157.16 0 157.82 C-0 158.36 0.02 158.9 0.07 159.43 L4.38 160.19 C4.69 161.69 5.27 163.08 6.08 164.31 L3.52 167.82 C4.25 168.73 5.1 169.56 6.01 170.29 L9.65 167.8 C10.92 168.61 12.33 169.17 13.87 169.45 L14.55 173.73 C15.03 173.77 15.53 173.77 16.02 173.77 C16.72 173.77 17.39 173.75 18.07 173.66 L18.88 169.29 C20.34 168.93 21.71 168.3 22.9 167.46 L26.4 169.99 C27.3 169.22 28.13 168.34 28.85 167.39 L26.31 163.73 C26.99 162.54 27.47 161.23 27.71 159.83 L32 159.15 C32.04 158.71 32.05 158.27 32.05 157.82 C32.05 157.03 31.96 156.25 31.84 155.49 L27.49 154.7 C27.14 153.44 26.58 152.27 25.87 151.21 L28.44 147.7 C27.64 146.73 26.74 145.84 25.74 145.08 L22.04 147.61 C20.98 146.99 19.83 146.51 18.59 146.23 L17.91 141.93 C17.29 141.86 16.66 141.82 16.02 141.82 C15.85 141.82 15.67 141.81 15.5 141.82 C15.42 141.82 15.34 141.82 15.25 141.82 C15.23 141.82 15.21 141.82 15.18 141.82 Z M15.77 152.82 C15.86 152.81 15.94 152.82 16.02 152.82 C18.71 152.82 20.9 155 20.9 157.68 C20.9 160.36 18.71 162.53 16.02 162.53 C13.34 162.53 11.17 160.36 11.17 157.68 C11.17 155.09 13.2 152.95 15.77 152.82 Z" class="st25"/></g><g id="shape88-187" transform="translate(10.4199,-10.5096)"><title>path3936</title><path d="M11.21 168.18 A5.60675 5.59012 -180 0 0 0 168.18 A5.60675 5.59012 -180 0 0 11.21 168.18 Z" class="st26"/></g><g id="shape89-190" transform="translate(0.717085,-0.698763)"><title>path3937</title><path d="M13.96 143.37 L13.33 147.56 C12.11 147.83 9.88 148.68 8.85 149.31 L5.46 146.79 C4.56 147.49 4.5 147.53 3.77 148.42 L6.23 152.04 C5.52 153.12 4.68 155.03 4.37 156.4 C4.37 156.4 0.07 157.12 0.07 157.12 C0 157.72 0.04 159.01 0.09 159.5 L4.19 160.24 C4.48 161.64 5.56 163.89 6.32 165.05 L3.72 168.47 C4.41 169.32 4.55 169.4 5.4 170.08 L8.88 167.55 C10.07 168.3 12.43 169.22 13.87 169.48 L14.44 173.62 C14.89 173.66 16.14 173.77 16.78 173.69 L17.41 169.39 C18.78 169.05 21.14 168.08 22.26 167.29 L25.73 169.79 C26.58 169.07 26.58 168.96 27.25 168.07 L24.68 164.43 C25.33 163.32 26.16 161.15 26.39 159.83 L30.6 159.14 C30.63 158.72 30.64 157.55 30.53 156.84 L26.24 156.1 C25.92 154.92 24.82 152.8 24.16 151.81 L26.88 148.39 C26.14 147.48 25.86 147.36 24.93 146.64 L21.34 149.21 C20.34 148.62 18.35 147.72 17.19 147.47 L16.55 143.37 C15.97 143.31 14.3 143.34 13.96 143.37 Z" class="st27"/></g></g><g id="group90-193" transform="translate(1.65867E-013,-0.705696)"><title>g3938</title><g id="shape91-194"><title>path3939</title><path d="M15.18 141.82 C14.85 141.84 14.52 141.9 14.19 141.93 L14.16 141.93 L13.37 146.26 C12.07 146.55 10.86 147.05 9.76 147.73 L6.2 145.17 C5.23 145.91 4.36 146.78 3.59 147.73 L6.06 151.32 C5.31 152.47 4.74 153.78 4.43 155.15 C4.43 155.16 4.43 155.17 4.43 155.17 L0.11 155.85 C0.03 156.49 0 157.16 0 157.82 C-0 158.36 0.02 158.9 0.07 159.43 L4.38 160.19 C4.69 161.69 5.27 163.08 6.08 164.31 L3.52 167.82 C4.25 168.73 5.1 169.56 6.01 170.29 L9.65 167.8 C10.92 168.61 12.33 169.17 13.87 169.45 L14.55 173.73 C15.03 173.77 15.53 173.77 16.02 173.77 C16.72 173.77 17.39 173.75 18.07 173.66 L18.88 169.29 C20.34 168.93 21.71 168.3 22.9 167.46 L26.4 169.99 C27.3 169.22 28.13 168.34 28.85 167.39 L26.31 163.73 C26.99 162.54 27.47 161.23 27.71 159.83 L32 159.15 C32.04 158.71 32.05 158.27 32.05 157.82 C32.05 157.03 31.96 156.25 31.84 155.49 L27.49 154.7 C27.14 153.44 26.58 152.27 25.87 151.21 L28.44 147.7 C27.64 146.73 26.74 145.84 25.74 145.08 L22.04 147.61 C20.98 146.99 19.83 146.51 18.59 146.23 L17.91 141.93 C17.29 141.86 16.66 141.82 16.02 141.82 C15.85 141.82 15.67 141.81 15.5 141.82 C15.42 141.82 15.34 141.82 15.25 141.82 C15.23 141.82 15.21 141.82 15.18 141.82 Z M15.77 152.82 C15.86 152.81 15.94 152.82 16.02 152.82 C18.71 152.82 20.9 155 20.9 157.68 C20.9 160.36 18.71 162.53 16.02 162.53 C13.34 162.53 11.17 160.36 11.17 157.68 C11.17 155.09 13.2 152.95 15.77 152.82 Z" class="st28"/></g><g id="shape92-197" transform="translate(10.4199,-10.5096)"><title>path3940</title><path d="M11.21 168.18 A5.60675 5.59012 -180 0 0 0 168.18 A5.60675 5.59012 -180 0 0 11.21 168.18 Z" class="st29"/></g><g id="shape93-199" transform="translate(0.717085,-0.698763)"><title>path3941</title><path d="M13.96 143.37 L13.33 147.56 C12.11 147.83 9.88 148.68 8.85 149.31 L5.46 146.79 C4.56 147.49 4.5 147.53 3.77 148.42 L6.23 152.04 C5.52 153.12 4.68 155.03 4.37 156.4 C4.37 156.4 0.07 157.12 0.07 157.12 C0 157.72 0.04 159.01 0.09 159.5 L4.19 160.24 C4.48 161.64 5.56 163.89 6.32 165.05 L3.72 168.47 C4.41 169.32 4.55 169.4 5.4 170.08 L8.88 167.55 C10.07 168.3 12.43 169.22 13.87 169.48 L14.44 173.62 C14.89 173.66 16.14 173.77 16.78 173.69 L17.41 169.39 C18.78 169.05 21.14 168.08 22.26 167.29 L25.73 169.79 C26.58 169.07 26.58 168.96 27.25 168.07 L24.68 164.43 C25.33 163.32 26.16 161.15 26.39 159.83 L30.6 159.14 C30.63 158.72 30.64 157.55 30.53 156.84 L26.24 156.1 C25.92 154.92 24.82 152.8 24.16 151.81 L26.88 148.39 C26.14 147.48 25.86 147.36 24.93 146.64 L21.34 149.21 C20.34 148.62 18.35 147.72 17.19 147.47 L16.55 143.37 C15.97 143.31 14.3 143.34 13.96 143.37 Z" class="st30"/></g></g></g></g><g id="group94-201" transform="translate(355.081,-51.3018)"><title>Sheet.94</title><g id="shape95-202" transform="translate(2.59107,-6.71193)"><title>path3923</title><path d="M66.13 113.42 L49.6 113.42 L33.07 113.42 L16.53 113.42 L0 113.42 L0 128.51 L0 143.6 L0 158.69 L0 173.77 L16.53 173.77 L33.07 173.77 L49.6 173.77 L66.13 158.69 L66.13 143.6 L66.13 128.51 L66.13 113.42 Z" class="st17"/></g><g id="shape96-204" transform="translate(2.01269,-6.49239)"><title>path3918</title><path d="M67.24 113.74 L50.71 113.43 L34.18 113.13 L17.65 112.82 L1.12 112.51 L0.84 127.6 L0.56 142.68 L0.28 157.77 L0 172.85 L16.53 173.16 L33.06 173.47 L49.59 173.77 L66.4 158.99 L66.68 143.91 L66.96 128.82 L67.24 113.74 Z" class="st18"/></g><g id="group97-206" transform="translate(23.3836,5.68434E-014)"><title>g3924</title><g id="group98-207" transform="translate(1.13619,-2.27374E-013)"><title>g3925</title><g id="shape99-208"><title>path3926</title><path d="M24.48 122.25 C23.94 122.29 23.41 122.37 22.87 122.43 L22.84 122.43 L21.56 129.4 C19.47 129.88 17.5 130.68 15.74 131.77 L9.99 127.65 C8.44 128.85 7.02 130.26 5.78 131.77 L9.77 137.58 C8.56 139.42 7.65 141.53 7.14 143.74 C7.14 143.75 7.14 143.78 7.14 143.78 L0.18 144.87 C0.06 145.91 -0 146.98 0 148.05 C0 148.92 0.02 149.79 0.11 150.64 L7.06 151.88 C7.56 154.29 8.5 156.54 9.81 158.52 L5.67 164.18 C6.86 165.64 8.22 166.98 9.7 168.15 L15.55 164.14 C17.6 165.44 19.88 166.35 22.36 166.8 L23.46 173.7 C24.24 173.77 25.04 173.77 25.84 173.77 C26.97 173.77 28.04 173.73 29.13 173.59 L30.45 166.55 C32.8 165.96 35.01 164.95 36.93 163.59 L42.56 167.68 C44.02 166.44 45.36 165.01 46.52 163.48 L42.42 157.57 C43.53 155.66 44.3 153.55 44.69 151.3 L51.6 150.2 C51.66 149.48 51.68 148.78 51.68 148.05 C51.68 146.77 51.53 145.52 51.35 144.29 L44.32 143.01 C43.77 140.99 42.87 139.09 41.72 137.39 L45.86 131.74 C44.57 130.17 43.11 128.73 41.5 127.5 L35.54 131.59 C33.82 130.58 31.98 129.8 29.97 129.37 L28.88 122.43 C27.88 122.32 26.87 122.25 25.84 122.25 C25.56 122.25 25.27 122.24 25 122.25 C24.86 122.25 24.73 122.24 24.59 122.25 C24.56 122.25 24.52 122.25 24.48 122.25 Z M25.44 139.98 C25.57 139.98 25.7 139.98 25.84 139.98 C30.17 139.98 33.71 143.51 33.71 147.83 C33.71 152.15 30.17 155.64 25.84 155.64 C21.51 155.64 18.01 152.15 18.01 147.83 C18.01 143.64 21.29 140.19 25.44 139.98 Z" class="st19"/></g><g id="shape100-211" transform="translate(16.8018,-16.9463)"><title>path3927</title><path d="M18.08 164.76 A9.0407 9.01388 -180 0 0 0 164.76 A9.0407 9.01388 -180 0 0 18.08 164.76 Z" class="st20"/></g><g id="shape101-214" transform="translate(1.15628,-1.12673)"><title>path3928</title><path d="M22.52 124.76 L21.49 131.5 C19.53 131.95 15.93 133.31 14.28 134.33 L8.8 130.26 C7.35 131.39 7.25 131.46 6.08 132.89 L10.04 138.74 C8.9 140.47 7.54 143.55 7.05 145.75 C7.05 145.75 0.12 146.92 0.12 146.92 C0 147.89 0.06 149.96 0.14 150.76 L6.76 151.95 C7.22 154.21 8.96 157.84 10.19 159.7 L6 165.22 C7.11 166.59 7.33 166.72 8.71 167.82 L14.31 163.73 C16.23 164.95 20.04 166.44 22.36 166.86 L23.28 173.52 C24.01 173.59 26.03 173.77 27.05 173.64 L28.08 166.71 C30.28 166.16 34.09 164.6 35.89 163.33 L41.48 167.35 C42.85 166.19 42.86 166.02 43.95 164.58 L39.8 158.71 C40.84 156.92 42.19 153.41 42.55 151.3 L49.34 150.18 C49.4 149.5 49.4 147.62 49.23 146.47 L42.31 145.28 C41.8 143.38 40.03 139.95 38.95 138.36 L43.35 132.84 C42.15 131.38 41.7 131.18 40.19 130.03 L34.4 134.16 C32.8 133.21 29.59 131.77 27.71 131.36 L26.69 124.76 C25.75 124.65 23.05 124.7 22.52 124.76 Z" class="st21"/></g></g><g id="group102-217" transform="translate(2.59792E-013,-1.13791)"><title>g3929</title><g id="shape103-218"><title>path3930</title><path d="M24.48 122.25 C23.94 122.29 23.41 122.37 22.87 122.43 L22.84 122.43 L21.56 129.4 C19.47 129.88 17.5 130.68 15.74 131.77 L9.99 127.65 C8.44 128.85 7.02 130.26 5.78 131.77 L9.77 137.58 C8.56 139.42 7.65 141.53 7.14 143.74 C7.14 143.75 7.14 143.78 7.14 143.78 L0.18 144.87 C0.06 145.91 -0 146.98 0 148.05 C0 148.92 0.02 149.79 0.11 150.64 L7.06 151.88 C7.56 154.29 8.5 156.54 9.81 158.52 L5.67 164.18 C6.86 165.64 8.22 166.98 9.7 168.15 L15.55 164.14 C17.6 165.44 19.88 166.35 22.36 166.8 L23.46 173.7 C24.24 173.77 25.04 173.77 25.84 173.77 C26.97 173.77 28.04 173.73 29.13 173.59 L30.45 166.55 C32.8 165.96 35.01 164.95 36.93 163.59 L42.56 167.68 C44.02 166.44 45.36 165.01 46.52 163.48 L42.42 157.57 C43.53 155.66 44.3 153.55 44.69 151.3 L51.6 150.2 C51.66 149.48 51.68 148.78 51.68 148.05 C51.68 146.77 51.53 145.52 51.35 144.29 L44.32 143.01 C43.77 140.99 42.87 139.09 41.72 137.39 L45.86 131.74 C44.57 130.17 43.11 128.73 41.5 127.5 L35.54 131.59 C33.82 130.58 31.98 129.8 29.97 129.37 L28.88 122.43 C27.88 122.32 26.87 122.25 25.84 122.25 C25.56 122.25 25.27 122.24 25 122.25 C24.86 122.25 24.73 122.24 24.59 122.25 C24.56 122.25 24.52 122.25 24.48 122.25 Z M25.44 139.98 C25.57 139.98 25.7 139.98 25.84 139.98 C30.17 139.98 33.71 143.51 33.71 147.83 C33.71 152.15 30.17 155.64 25.84 155.64 C21.51 155.64 18.01 152.15 18.01 147.83 C18.01 143.64 21.29 140.19 25.44 139.98 Z" class="st22"/></g><g id="shape104-221" transform="translate(16.8018,-16.9463)"><title>path3931</title><path d="M18.08 164.76 A9.0407 9.01388 -180 0 0 0 164.76 A9.0407 9.01388 -180 0 0 18.08 164.76 Z" class="st23"/></g><g id="shape105-223" transform="translate(1.15628,-1.12673)"><title>path3932</title><path d="M22.52 124.76 L21.49 131.5 C19.53 131.95 15.93 133.31 14.28 134.33 L8.8 130.26 C7.35 131.39 7.25 131.46 6.08 132.89 L10.04 138.74 C8.9 140.47 7.54 143.55 7.05 145.75 C7.05 145.75 0.12 146.92 0.12 146.92 C0 147.89 0.06 149.96 0.14 150.76 L6.76 151.95 C7.22 154.21 8.96 157.84 10.19 159.7 L6 165.22 C7.11 166.59 7.33 166.72 8.71 167.82 L14.31 163.73 C16.23 164.95 20.04 166.44 22.36 166.86 L23.28 173.52 C24.01 173.59 26.03 173.77 27.05 173.64 L28.08 166.71 C30.28 166.16 34.09 164.6 35.89 163.33 L41.48 167.35 C42.85 166.19 42.86 166.02 43.95 164.58 L39.8 158.71 C40.84 156.92 42.19 153.41 42.55 151.3 L49.34 150.18 C49.4 149.5 49.4 147.62 49.23 146.47 L42.31 145.28 C41.8 143.38 40.03 139.95 38.95 138.36 L43.35 132.84 C42.15 131.38 41.7 131.18 40.19 130.03 L34.4 134.16 C32.8 133.21 29.59 131.77 27.71 131.36 L26.69 124.76 C25.75 124.65 23.05 124.7 22.52 124.76 Z" class="st24"/></g></g></g><g id="group106-225" transform="translate(5.9952E-015,-33.3839)"><title>g3933</title><g id="group107-226" transform="translate(0.704625,-1.42109E-013)"><title>g3934</title><g id="shape108-227"><title>path3935</title><path d="M15.18 141.82 C14.85 141.84 14.52 141.9 14.19 141.93 L14.16 141.93 L13.37 146.26 C12.07 146.55 10.86 147.05 9.76 147.73 L6.2 145.17 C5.23 145.91 4.36 146.78 3.59 147.73 L6.06 151.32 C5.31 152.47 4.74 153.78 4.43 155.15 C4.43 155.16 4.43 155.17 4.43 155.17 L0.11 155.85 C0.03 156.49 0 157.16 0 157.82 C-0 158.36 0.02 158.9 0.07 159.43 L4.38 160.19 C4.69 161.69 5.27 163.08 6.08 164.31 L3.52 167.82 C4.25 168.73 5.1 169.56 6.01 170.29 L9.65 167.8 C10.92 168.61 12.33 169.17 13.87 169.45 L14.55 173.73 C15.03 173.77 15.53 173.77 16.02 173.77 C16.72 173.77 17.39 173.75 18.07 173.66 L18.88 169.29 C20.34 168.93 21.71 168.3 22.9 167.46 L26.4 169.99 C27.3 169.22 28.13 168.34 28.85 167.39 L26.31 163.73 C26.99 162.54 27.47 161.23 27.71 159.83 L32 159.15 C32.04 158.71 32.05 158.27 32.05 157.82 C32.05 157.03 31.96 156.25 31.84 155.49 L27.49 154.7 C27.14 153.44 26.58 152.27 25.87 151.21 L28.44 147.7 C27.64 146.73 26.74 145.84 25.74 145.08 L22.04 147.61 C20.98 146.99 19.83 146.51 18.59 146.23 L17.91 141.93 C17.29 141.86 16.66 141.82 16.02 141.82 C15.85 141.82 15.67 141.81 15.5 141.82 C15.42 141.82 15.34 141.82 15.25 141.82 C15.23 141.82 15.21 141.82 15.18 141.82 Z M15.77 152.82 C15.86 152.81 15.94 152.82 16.02 152.82 C18.71 152.82 20.9 155 20.9 157.68 C20.9 160.36 18.71 162.53 16.02 162.53 C13.34 162.53 11.17 160.36 11.17 157.68 C11.17 155.09 13.2 152.95 15.77 152.82 Z" class="st25"/></g><g id="shape109-230" transform="translate(10.4199,-10.5096)"><title>path3936</title><path d="M11.21 168.18 A5.60675 5.59012 -180 0 0 0 168.18 A5.60675 5.59012 -180 0 0 11.21 168.18 Z" class="st26"/></g><g id="shape110-233" transform="translate(0.717085,-0.698763)"><title>path3937</title><path d="M13.96 143.37 L13.33 147.56 C12.11 147.83 9.88 148.68 8.85 149.31 L5.46 146.79 C4.56 147.49 4.5 147.53 3.77 148.42 L6.23 152.04 C5.52 153.12 4.68 155.03 4.37 156.4 C4.37 156.4 0.07 157.12 0.07 157.12 C0 157.72 0.04 159.01 0.09 159.5 L4.19 160.24 C4.48 161.64 5.56 163.89 6.32 165.05 L3.72 168.47 C4.41 169.32 4.55 169.4 5.4 170.08 L8.88 167.55 C10.07 168.3 12.43 169.22 13.87 169.48 L14.44 173.62 C14.89 173.66 16.14 173.77 16.78 173.69 L17.41 169.39 C18.78 169.05 21.14 168.08 22.26 167.29 L25.73 169.79 C26.58 169.07 26.58 168.96 27.25 168.07 L24.68 164.43 C25.33 163.32 26.16 161.15 26.39 159.83 L30.6 159.14 C30.63 158.72 30.64 157.55 30.53 156.84 L26.24 156.1 C25.92 154.92 24.82 152.8 24.16 151.81 L26.88 148.39 C26.14 147.48 25.86 147.36 24.93 146.64 L21.34 149.21 C20.34 148.62 18.35 147.72 17.19 147.47 L16.55 143.37 C15.97 143.31 14.3 143.34 13.96 143.37 Z" class="st27"/></g></g><g id="group111-236" transform="translate(1.65867E-013,-0.705696)"><title>g3938</title><g id="shape112-237"><title>path3939</title><path d="M15.18 141.82 C14.85 141.84 14.52 141.9 14.19 141.93 L14.16 141.93 L13.37 146.26 C12.07 146.55 10.86 147.05 9.76 147.73 L6.2 145.17 C5.23 145.91 4.36 146.78 3.59 147.73 L6.06 151.32 C5.31 152.47 4.74 153.78 4.43 155.15 C4.43 155.16 4.43 155.17 4.43 155.17 L0.11 155.85 C0.03 156.49 0 157.16 0 157.82 C-0 158.36 0.02 158.9 0.07 159.43 L4.38 160.19 C4.69 161.69 5.27 163.08 6.08 164.31 L3.52 167.82 C4.25 168.73 5.1 169.56 6.01 170.29 L9.65 167.8 C10.92 168.61 12.33 169.17 13.87 169.45 L14.55 173.73 C15.03 173.77 15.53 173.77 16.02 173.77 C16.72 173.77 17.39 173.75 18.07 173.66 L18.88 169.29 C20.34 168.93 21.71 168.3 22.9 167.46 L26.4 169.99 C27.3 169.22 28.13 168.34 28.85 167.39 L26.31 163.73 C26.99 162.54 27.47 161.23 27.71 159.83 L32 159.15 C32.04 158.71 32.05 158.27 32.05 157.82 C32.05 157.03 31.96 156.25 31.84 155.49 L27.49 154.7 C27.14 153.44 26.58 152.27 25.87 151.21 L28.44 147.7 C27.64 146.73 26.74 145.84 25.74 145.08 L22.04 147.61 C20.98 146.99 19.83 146.51 18.59 146.23 L17.91 141.93 C17.29 141.86 16.66 141.82 16.02 141.82 C15.85 141.82 15.67 141.81 15.5 141.82 C15.42 141.82 15.34 141.82 15.25 141.82 C15.23 141.82 15.21 141.82 15.18 141.82 Z M15.77 152.82 C15.86 152.81 15.94 152.82 16.02 152.82 C18.71 152.82 20.9 155 20.9 157.68 C20.9 160.36 18.71 162.53 16.02 162.53 C13.34 162.53 11.17 160.36 11.17 157.68 C11.17 155.09 13.2 152.95 15.77 152.82 Z" class="st28"/></g><g id="shape113-240" transform="translate(10.4199,-10.5096)"><title>path3940</title><path d="M11.21 168.18 A5.60675 5.59012 -180 0 0 0 168.18 A5.60675 5.59012 -180 0 0 11.21 168.18 Z" class="st29"/></g><g id="shape114-242" transform="translate(0.717085,-0.698763)"><title>path3941</title><path d="M13.96 143.37 L13.33 147.56 C12.11 147.83 9.88 148.68 8.85 149.31 L5.46 146.79 C4.56 147.49 4.5 147.53 3.77 148.42 L6.23 152.04 C5.52 153.12 4.68 155.03 4.37 156.4 C4.37 156.4 0.07 157.12 0.07 157.12 C0 157.72 0.04 159.01 0.09 159.5 L4.19 160.24 C4.48 161.64 5.56 163.89 6.32 165.05 L3.72 168.47 C4.41 169.32 4.55 169.4 5.4 170.08 L8.88 167.55 C10.07 168.3 12.43 169.22 13.87 169.48 L14.44 173.62 C14.89 173.66 16.14 173.77 16.78 173.69 L17.41 169.39 C18.78 169.05 21.14 168.08 22.26 167.29 L25.73 169.79 C26.58 169.07 26.58 168.96 27.25 168.07 L24.68 164.43 C25.33 163.32 26.16 161.15 26.39 159.83 L30.6 159.14 C30.63 158.72 30.64 157.55 30.53 156.84 L26.24 156.1 C25.92 154.92 24.82 152.8 24.16 151.81 L26.88 148.39 C26.14 147.48 25.86 147.36 24.93 146.64 L21.34 149.21 C20.34 148.62 18.35 147.72 17.19 147.47 L16.55 143.37 C15.97 143.31 14.3 143.34 13.96 143.37 Z" class="st30"/></g></g></g></g><g id="group115-244" transform="translate(249.384,-54.7957)"><title>g1364.115</title><g id="shape116-245" transform="translate(1.39718,-1.49991)"><title>path1365</title><path d="M0 107.64 L0 124.17 L0 140.71 L0 157.24 L0 173.77 L15.09 173.77 L30.17 173.77 L45.26 173.77 L60.35 173.77 L60.35 157.24 L60.35 140.71 L60.35 124.17 L45.26 107.64 L30.17 107.64 L15.09 107.64 L0 107.64 Z" class="st1"/></g><g id="group117-247"><title>g1366</title><g id="shape118-248" transform="translate(0.887591,-0.868677)"><title>path1367</title><path d="M0 108.29 L0 124.66 L0 141.03 L0 157.4 L0 173.77 L14.89 173.77 L29.77 173.77 L44.66 173.77 L59.55 173.77 L59.55 157.4 L59.55 141.03 L59.55 124.66 L44.66 108.29 L29.77 108.29 L14.89 108.29 L0 108.29 Z" class="st2"/></g><g id="shape119-251" transform="translate(0.44485,-0.435199)"><title>path1368</title><path d="M0 107.63 C0 129.68 0 151.73 0 173.77 C20.15 173.77 40.29 173.77 60.44 173.77 C60.44 157.2 60.44 140.63 60.44 124.06 C55.39 118.51 50.35 112.96 45.3 107.42 C30.2 107.42 15.1 107.42 0 107.42 C0 107.46 0 107.61 0 107.63 Z" class="st2"/></g><g id="shape120-254"><title>path1369</title><path d="M0 106.76 C0 129.1 0 151.44 0 173.77 C20.44 173.77 40.88 173.77 61.33 173.77 C61.33 157 61.33 140.23 61.33 123.45 C56.2 117.82 51.07 112.18 45.94 106.55 C30.63 106.55 15.31 106.55 0 106.55 C0 106.59 0 106.74 0 106.76 Z" class="st2"/></g></g><g id="shape121-257" transform="translate(1.42196,-1.41794)"><title>path1370</title><path d="M0 107.64 L0 124.17 L0 140.71 L0 157.24 L0 173.77 L15.09 173.77 L30.17 173.77 L45.26 173.77 L60.35 173.77 L60.35 157.24 L60.35 140.71 L60.35 124.17 L45.26 107.64 L30.17 107.64 L15.09 107.64 L0 107.64 Z" class="st3"/></g><g id="shape122-260" transform="translate(1.59289,-1.83988)"><title>path1371</title><path d="M0.27 113.16 L0 173.77 L59.25 173.77 L59.29 158.79 C57.96 159.3 44.58 140.34 27.72 141.16 C10.86 141.97 15.22 115.61 0.27 113.16 Z" class="st6"/></g><g id="shape123-263" transform="translate(46.6843,-51.0159)"><title>path1372</title><path d="M15.09 173.77 C10.54 172.43 4.64 172.62 0.19 173.38 C0.96 168.45 1.06 162.27 0 157.24 L15.09 173.77 Z" class="st7"/></g></g><g id="shape124-266" transform="translate(39.0704,-112.162)"><title>Dynamic connector.124</title><path d="M7.09 180.66 L7.09 181.05" class="st16"/></g><g id="shape125-269" transform="translate(241.695,-37.3869)"><title>text998.125</title><desc>XSL-FO Document</desc><rect width="85.039" height="10.8" x="0" y="162.973" class="st9"/><text x="4.51" y="171.07" class="st10">XSL-FO Document</text></g><g id="shape130-272" transform="translate(203.715,-81.6308)"><title>Dynamic connector.130</title><path d="M0 166.69 L35.4 166.69" class="st31"/></g><g id="shape131-278" transform="translate(328.243,-37.3869)"><title>text6629.131</title><desc>FO Rendering Engine</desc><rect width="126.05" height="10.8" x="0" y="162.973" class="st9"/><text x="19.5" y="171.07" class="st10">FO Rendering Engine</text></g><g id="shape136-281" transform="translate(75.3783,-139.753)"><title>Dynamic connector.136</title><path d="M0 173.77 L38.05 173.77 L38.05 225.04" class="st33"/></g><g id="shape140-284" transform="translate(137.6,259.063) rotate(180)"><title>Sheet.140</title><path d="M10.8 173.77 L11.16 173.77 L24.17 173.77" class="st34"/></g><g id="shape42-290" transform="translate(107.049,-77.0719)"><title>Dynamic connector.42</title><path d="M7.09 173.77 L7.09 213.46" class="st33"/></g><g id="shape43-293" transform="translate(138.309,270.473) rotate(180)"><title>Sheet.43</title><path d="M10.8 173.77 L11.16 173.77 L24.17 173.77" class="st34"/></g><g id="shape34-298" transform="translate(311.131,-81.1019)"><title>Dynamic connector.34</title><path d="M0 166.69 L35.38 166.69" class="st31"/></g><g id="shape35-303" transform="translate(423.802,-80.8091)"><title>Dynamic connector.35</title><path d="M0 166.69 L42.08 166.69" class="st31"/></g><g id="shape141-308" transform="translate(114.136,310.158) rotate(180)"><title>Sheet.141</title><path d="M0 173.77 L38.43 173.77" class="st33"/></g></g></svg>